%TF.GenerationSoftware,KiCad,Pcbnew,9.0.6*%
%TF.CreationDate,2026-02-04T00:25:10-06:00*%
%TF.ProjectId,pcblunarroverrfd900x modem,7063626c-756e-4617-9272-6f7665727266,rev?*%
%TF.SameCoordinates,Original*%
%TF.FileFunction,Legend,Bot*%
%TF.FilePolarity,Positive*%
%FSLAX46Y46*%
G04 Gerber Fmt 4.6, Leading zero omitted, Abs format (unit mm)*
G04 Created by KiCad (PCBNEW 9.0.6) date 2026-02-04 00:25:10*
%MOMM*%
%LPD*%
G01*
G04 APERTURE LIST*
%ADD10C,0.150000*%
%ADD11C,0.100000*%
G04 APERTURE END LIST*
D10*
X77774580Y-44658207D02*
X77822200Y-44610588D01*
X77822200Y-44610588D02*
X77869819Y-44467731D01*
X77869819Y-44467731D02*
X77869819Y-44372493D01*
X77869819Y-44372493D02*
X77822200Y-44229636D01*
X77822200Y-44229636D02*
X77726961Y-44134398D01*
X77726961Y-44134398D02*
X77631723Y-44086779D01*
X77631723Y-44086779D02*
X77441247Y-44039160D01*
X77441247Y-44039160D02*
X77298390Y-44039160D01*
X77298390Y-44039160D02*
X77107914Y-44086779D01*
X77107914Y-44086779D02*
X77012676Y-44134398D01*
X77012676Y-44134398D02*
X76917438Y-44229636D01*
X76917438Y-44229636D02*
X76869819Y-44372493D01*
X76869819Y-44372493D02*
X76869819Y-44467731D01*
X76869819Y-44467731D02*
X76917438Y-44610588D01*
X76917438Y-44610588D02*
X76965057Y-44658207D01*
X76869819Y-44943922D02*
X76869819Y-45515350D01*
X77869819Y-45229636D02*
X76869819Y-45229636D01*
X77822200Y-45801065D02*
X77869819Y-45943922D01*
X77869819Y-45943922D02*
X77869819Y-46182017D01*
X77869819Y-46182017D02*
X77822200Y-46277255D01*
X77822200Y-46277255D02*
X77774580Y-46324874D01*
X77774580Y-46324874D02*
X77679342Y-46372493D01*
X77679342Y-46372493D02*
X77584104Y-46372493D01*
X77584104Y-46372493D02*
X77488866Y-46324874D01*
X77488866Y-46324874D02*
X77441247Y-46277255D01*
X77441247Y-46277255D02*
X77393628Y-46182017D01*
X77393628Y-46182017D02*
X77346009Y-45991541D01*
X77346009Y-45991541D02*
X77298390Y-45896303D01*
X77298390Y-45896303D02*
X77250771Y-45848684D01*
X77250771Y-45848684D02*
X77155533Y-45801065D01*
X77155533Y-45801065D02*
X77060295Y-45801065D01*
X77060295Y-45801065D02*
X76965057Y-45848684D01*
X76965057Y-45848684D02*
X76917438Y-45896303D01*
X76917438Y-45896303D02*
X76869819Y-45991541D01*
X76869819Y-45991541D02*
X76869819Y-46229636D01*
X76869819Y-46229636D02*
X76917438Y-46372493D01*
X71669819Y-49193922D02*
X71669819Y-49765350D01*
X72669819Y-49479636D02*
X71669819Y-49479636D01*
X71669819Y-50003446D02*
X72669819Y-50670112D01*
X71669819Y-50670112D02*
X72669819Y-50003446D01*
X72669819Y-51574874D02*
X72669819Y-51003446D01*
X72669819Y-51289160D02*
X71669819Y-51289160D01*
X71669819Y-51289160D02*
X71812676Y-51193922D01*
X71812676Y-51193922D02*
X71907914Y-51098684D01*
X71907914Y-51098684D02*
X71955533Y-51003446D01*
X77869819Y-52408207D02*
X77393628Y-52074874D01*
X77869819Y-51836779D02*
X76869819Y-51836779D01*
X76869819Y-51836779D02*
X76869819Y-52217731D01*
X76869819Y-52217731D02*
X76917438Y-52312969D01*
X76917438Y-52312969D02*
X76965057Y-52360588D01*
X76965057Y-52360588D02*
X77060295Y-52408207D01*
X77060295Y-52408207D02*
X77203152Y-52408207D01*
X77203152Y-52408207D02*
X77298390Y-52360588D01*
X77298390Y-52360588D02*
X77346009Y-52312969D01*
X77346009Y-52312969D02*
X77393628Y-52217731D01*
X77393628Y-52217731D02*
X77393628Y-51836779D01*
X76869819Y-52741541D02*
X77869819Y-53408207D01*
X76869819Y-53408207D02*
X77869819Y-52741541D01*
X77869819Y-54312969D02*
X77869819Y-53741541D01*
X77869819Y-54027255D02*
X76869819Y-54027255D01*
X76869819Y-54027255D02*
X77012676Y-53932017D01*
X77012676Y-53932017D02*
X77107914Y-53836779D01*
X77107914Y-53836779D02*
X77155533Y-53741541D01*
X77822200Y-56789160D02*
X77869819Y-56932017D01*
X77869819Y-56932017D02*
X77869819Y-57170112D01*
X77869819Y-57170112D02*
X77822200Y-57265350D01*
X77822200Y-57265350D02*
X77774580Y-57312969D01*
X77774580Y-57312969D02*
X77679342Y-57360588D01*
X77679342Y-57360588D02*
X77584104Y-57360588D01*
X77584104Y-57360588D02*
X77488866Y-57312969D01*
X77488866Y-57312969D02*
X77441247Y-57265350D01*
X77441247Y-57265350D02*
X77393628Y-57170112D01*
X77393628Y-57170112D02*
X77346009Y-56979636D01*
X77346009Y-56979636D02*
X77298390Y-56884398D01*
X77298390Y-56884398D02*
X77250771Y-56836779D01*
X77250771Y-56836779D02*
X77155533Y-56789160D01*
X77155533Y-56789160D02*
X77060295Y-56789160D01*
X77060295Y-56789160D02*
X76965057Y-56836779D01*
X76965057Y-56836779D02*
X76917438Y-56884398D01*
X76917438Y-56884398D02*
X76869819Y-56979636D01*
X76869819Y-56979636D02*
X76869819Y-57217731D01*
X76869819Y-57217731D02*
X76917438Y-57360588D01*
X77869819Y-57789160D02*
X76869819Y-57789160D01*
X76869819Y-57789160D02*
X76869819Y-58027255D01*
X76869819Y-58027255D02*
X76917438Y-58170112D01*
X76917438Y-58170112D02*
X77012676Y-58265350D01*
X77012676Y-58265350D02*
X77107914Y-58312969D01*
X77107914Y-58312969D02*
X77298390Y-58360588D01*
X77298390Y-58360588D02*
X77441247Y-58360588D01*
X77441247Y-58360588D02*
X77631723Y-58312969D01*
X77631723Y-58312969D02*
X77726961Y-58265350D01*
X77726961Y-58265350D02*
X77822200Y-58170112D01*
X77822200Y-58170112D02*
X77869819Y-58027255D01*
X77869819Y-58027255D02*
X77869819Y-57789160D01*
X77584104Y-58741541D02*
X77584104Y-59217731D01*
X77869819Y-58646303D02*
X76869819Y-58979636D01*
X76869819Y-58979636D02*
X77869819Y-59312969D01*
X71717438Y-42060588D02*
X71669819Y-41965350D01*
X71669819Y-41965350D02*
X71669819Y-41822493D01*
X71669819Y-41822493D02*
X71717438Y-41679636D01*
X71717438Y-41679636D02*
X71812676Y-41584398D01*
X71812676Y-41584398D02*
X71907914Y-41536779D01*
X71907914Y-41536779D02*
X72098390Y-41489160D01*
X72098390Y-41489160D02*
X72241247Y-41489160D01*
X72241247Y-41489160D02*
X72431723Y-41536779D01*
X72431723Y-41536779D02*
X72526961Y-41584398D01*
X72526961Y-41584398D02*
X72622200Y-41679636D01*
X72622200Y-41679636D02*
X72669819Y-41822493D01*
X72669819Y-41822493D02*
X72669819Y-41917731D01*
X72669819Y-41917731D02*
X72622200Y-42060588D01*
X72622200Y-42060588D02*
X72574580Y-42108207D01*
X72574580Y-42108207D02*
X72241247Y-42108207D01*
X72241247Y-42108207D02*
X72241247Y-41917731D01*
X72669819Y-42536779D02*
X71669819Y-42536779D01*
X71669819Y-42536779D02*
X72669819Y-43108207D01*
X72669819Y-43108207D02*
X71669819Y-43108207D01*
X72669819Y-43584398D02*
X71669819Y-43584398D01*
X71669819Y-43584398D02*
X71669819Y-43822493D01*
X71669819Y-43822493D02*
X71717438Y-43965350D01*
X71717438Y-43965350D02*
X71812676Y-44060588D01*
X71812676Y-44060588D02*
X71907914Y-44108207D01*
X71907914Y-44108207D02*
X72098390Y-44155826D01*
X72098390Y-44155826D02*
X72241247Y-44155826D01*
X72241247Y-44155826D02*
X72431723Y-44108207D01*
X72431723Y-44108207D02*
X72526961Y-44060588D01*
X72526961Y-44060588D02*
X72622200Y-43965350D01*
X72622200Y-43965350D02*
X72669819Y-43822493D01*
X72669819Y-43822493D02*
X72669819Y-43584398D01*
X78119819Y-62658207D02*
X77643628Y-62324874D01*
X78119819Y-62086779D02*
X77119819Y-62086779D01*
X77119819Y-62086779D02*
X77119819Y-62467731D01*
X77119819Y-62467731D02*
X77167438Y-62562969D01*
X77167438Y-62562969D02*
X77215057Y-62610588D01*
X77215057Y-62610588D02*
X77310295Y-62658207D01*
X77310295Y-62658207D02*
X77453152Y-62658207D01*
X77453152Y-62658207D02*
X77548390Y-62610588D01*
X77548390Y-62610588D02*
X77596009Y-62562969D01*
X77596009Y-62562969D02*
X77643628Y-62467731D01*
X77643628Y-62467731D02*
X77643628Y-62086779D01*
X77119819Y-62943922D02*
X77119819Y-63515350D01*
X78119819Y-63229636D02*
X77119819Y-63229636D01*
X78119819Y-63848684D02*
X77119819Y-63848684D01*
X78119819Y-64420112D02*
X77548390Y-63991541D01*
X77119819Y-64420112D02*
X77691247Y-63848684D01*
X72669819Y-54908207D02*
X72193628Y-54574874D01*
X72669819Y-54336779D02*
X71669819Y-54336779D01*
X71669819Y-54336779D02*
X71669819Y-54717731D01*
X71669819Y-54717731D02*
X71717438Y-54812969D01*
X71717438Y-54812969D02*
X71765057Y-54860588D01*
X71765057Y-54860588D02*
X71860295Y-54908207D01*
X71860295Y-54908207D02*
X72003152Y-54908207D01*
X72003152Y-54908207D02*
X72098390Y-54860588D01*
X72098390Y-54860588D02*
X72146009Y-54812969D01*
X72146009Y-54812969D02*
X72193628Y-54717731D01*
X72193628Y-54717731D02*
X72193628Y-54336779D01*
X71669819Y-55193922D02*
X71669819Y-55765350D01*
X72669819Y-55479636D02*
X71669819Y-55479636D01*
X72622200Y-56051065D02*
X72669819Y-56193922D01*
X72669819Y-56193922D02*
X72669819Y-56432017D01*
X72669819Y-56432017D02*
X72622200Y-56527255D01*
X72622200Y-56527255D02*
X72574580Y-56574874D01*
X72574580Y-56574874D02*
X72479342Y-56622493D01*
X72479342Y-56622493D02*
X72384104Y-56622493D01*
X72384104Y-56622493D02*
X72288866Y-56574874D01*
X72288866Y-56574874D02*
X72241247Y-56527255D01*
X72241247Y-56527255D02*
X72193628Y-56432017D01*
X72193628Y-56432017D02*
X72146009Y-56241541D01*
X72146009Y-56241541D02*
X72098390Y-56146303D01*
X72098390Y-56146303D02*
X72050771Y-56098684D01*
X72050771Y-56098684D02*
X71955533Y-56051065D01*
X71955533Y-56051065D02*
X71860295Y-56051065D01*
X71860295Y-56051065D02*
X71765057Y-56098684D01*
X71765057Y-56098684D02*
X71717438Y-56146303D01*
X71717438Y-56146303D02*
X71669819Y-56241541D01*
X71669819Y-56241541D02*
X71669819Y-56479636D01*
X71669819Y-56479636D02*
X71717438Y-56622493D01*
X77119819Y-66943922D02*
X77119819Y-67515350D01*
X78119819Y-67229636D02*
X77119819Y-67229636D01*
X77119819Y-67753446D02*
X78119819Y-68420112D01*
X77119819Y-68420112D02*
X78119819Y-67753446D01*
X77215057Y-68753446D02*
X77167438Y-68801065D01*
X77167438Y-68801065D02*
X77119819Y-68896303D01*
X77119819Y-68896303D02*
X77119819Y-69134398D01*
X77119819Y-69134398D02*
X77167438Y-69229636D01*
X77167438Y-69229636D02*
X77215057Y-69277255D01*
X77215057Y-69277255D02*
X77310295Y-69324874D01*
X77310295Y-69324874D02*
X77405533Y-69324874D01*
X77405533Y-69324874D02*
X77548390Y-69277255D01*
X77548390Y-69277255D02*
X78119819Y-68705827D01*
X78119819Y-68705827D02*
X78119819Y-69324874D01*
X72622200Y-59289160D02*
X72669819Y-59432017D01*
X72669819Y-59432017D02*
X72669819Y-59670112D01*
X72669819Y-59670112D02*
X72622200Y-59765350D01*
X72622200Y-59765350D02*
X72574580Y-59812969D01*
X72574580Y-59812969D02*
X72479342Y-59860588D01*
X72479342Y-59860588D02*
X72384104Y-59860588D01*
X72384104Y-59860588D02*
X72288866Y-59812969D01*
X72288866Y-59812969D02*
X72241247Y-59765350D01*
X72241247Y-59765350D02*
X72193628Y-59670112D01*
X72193628Y-59670112D02*
X72146009Y-59479636D01*
X72146009Y-59479636D02*
X72098390Y-59384398D01*
X72098390Y-59384398D02*
X72050771Y-59336779D01*
X72050771Y-59336779D02*
X71955533Y-59289160D01*
X71955533Y-59289160D02*
X71860295Y-59289160D01*
X71860295Y-59289160D02*
X71765057Y-59336779D01*
X71765057Y-59336779D02*
X71717438Y-59384398D01*
X71717438Y-59384398D02*
X71669819Y-59479636D01*
X71669819Y-59479636D02*
X71669819Y-59717731D01*
X71669819Y-59717731D02*
X71717438Y-59860588D01*
X72574580Y-60860588D02*
X72622200Y-60812969D01*
X72622200Y-60812969D02*
X72669819Y-60670112D01*
X72669819Y-60670112D02*
X72669819Y-60574874D01*
X72669819Y-60574874D02*
X72622200Y-60432017D01*
X72622200Y-60432017D02*
X72526961Y-60336779D01*
X72526961Y-60336779D02*
X72431723Y-60289160D01*
X72431723Y-60289160D02*
X72241247Y-60241541D01*
X72241247Y-60241541D02*
X72098390Y-60241541D01*
X72098390Y-60241541D02*
X71907914Y-60289160D01*
X71907914Y-60289160D02*
X71812676Y-60336779D01*
X71812676Y-60336779D02*
X71717438Y-60432017D01*
X71717438Y-60432017D02*
X71669819Y-60574874D01*
X71669819Y-60574874D02*
X71669819Y-60670112D01*
X71669819Y-60670112D02*
X71717438Y-60812969D01*
X71717438Y-60812969D02*
X71765057Y-60860588D01*
X72669819Y-61765350D02*
X72669819Y-61289160D01*
X72669819Y-61289160D02*
X71669819Y-61289160D01*
D11*
X102443734Y-36176760D02*
X101967544Y-36176760D01*
X102538972Y-36462475D02*
X102205639Y-35462475D01*
X102205639Y-35462475D02*
X101872306Y-36462475D01*
X101110401Y-36462475D02*
X101110401Y-35462475D01*
X101110401Y-36414856D02*
X101205639Y-36462475D01*
X101205639Y-36462475D02*
X101396115Y-36462475D01*
X101396115Y-36462475D02*
X101491353Y-36414856D01*
X101491353Y-36414856D02*
X101538972Y-36367236D01*
X101538972Y-36367236D02*
X101586591Y-36271998D01*
X101586591Y-36271998D02*
X101586591Y-35986284D01*
X101586591Y-35986284D02*
X101538972Y-35891046D01*
X101538972Y-35891046D02*
X101491353Y-35843427D01*
X101491353Y-35843427D02*
X101396115Y-35795808D01*
X101396115Y-35795808D02*
X101205639Y-35795808D01*
X101205639Y-35795808D02*
X101110401Y-35843427D01*
X100253258Y-36414856D02*
X100348496Y-36462475D01*
X100348496Y-36462475D02*
X100538972Y-36462475D01*
X100538972Y-36462475D02*
X100634210Y-36414856D01*
X100634210Y-36414856D02*
X100681829Y-36319617D01*
X100681829Y-36319617D02*
X100681829Y-35938665D01*
X100681829Y-35938665D02*
X100634210Y-35843427D01*
X100634210Y-35843427D02*
X100538972Y-35795808D01*
X100538972Y-35795808D02*
X100348496Y-35795808D01*
X100348496Y-35795808D02*
X100253258Y-35843427D01*
X100253258Y-35843427D02*
X100205639Y-35938665D01*
X100205639Y-35938665D02*
X100205639Y-36033903D01*
X100205639Y-36033903D02*
X100681829Y-36129141D01*
X99777067Y-35795808D02*
X99777067Y-36462475D01*
X99777067Y-35891046D02*
X99729448Y-35843427D01*
X99729448Y-35843427D02*
X99634210Y-35795808D01*
X99634210Y-35795808D02*
X99491353Y-35795808D01*
X99491353Y-35795808D02*
X99396115Y-35843427D01*
X99396115Y-35843427D02*
X99348496Y-35938665D01*
X99348496Y-35938665D02*
X99348496Y-36462475D01*
X97777067Y-35938665D02*
X97634210Y-35986284D01*
X97634210Y-35986284D02*
X97586591Y-36033903D01*
X97586591Y-36033903D02*
X97538972Y-36129141D01*
X97538972Y-36129141D02*
X97538972Y-36271998D01*
X97538972Y-36271998D02*
X97586591Y-36367236D01*
X97586591Y-36367236D02*
X97634210Y-36414856D01*
X97634210Y-36414856D02*
X97729448Y-36462475D01*
X97729448Y-36462475D02*
X98110400Y-36462475D01*
X98110400Y-36462475D02*
X98110400Y-35462475D01*
X98110400Y-35462475D02*
X97777067Y-35462475D01*
X97777067Y-35462475D02*
X97681829Y-35510094D01*
X97681829Y-35510094D02*
X97634210Y-35557713D01*
X97634210Y-35557713D02*
X97586591Y-35652951D01*
X97586591Y-35652951D02*
X97586591Y-35748189D01*
X97586591Y-35748189D02*
X97634210Y-35843427D01*
X97634210Y-35843427D02*
X97681829Y-35891046D01*
X97681829Y-35891046D02*
X97777067Y-35938665D01*
X97777067Y-35938665D02*
X98110400Y-35938665D01*
X97110400Y-36462475D02*
X97110400Y-35795808D01*
X97110400Y-35986284D02*
X97062781Y-35891046D01*
X97062781Y-35891046D02*
X97015162Y-35843427D01*
X97015162Y-35843427D02*
X96919924Y-35795808D01*
X96919924Y-35795808D02*
X96824686Y-35795808D01*
X96491352Y-36462475D02*
X96491352Y-35795808D01*
X96491352Y-35462475D02*
X96538971Y-35510094D01*
X96538971Y-35510094D02*
X96491352Y-35557713D01*
X96491352Y-35557713D02*
X96443733Y-35510094D01*
X96443733Y-35510094D02*
X96491352Y-35462475D01*
X96491352Y-35462475D02*
X96491352Y-35557713D01*
X95586591Y-36462475D02*
X95586591Y-35938665D01*
X95586591Y-35938665D02*
X95634210Y-35843427D01*
X95634210Y-35843427D02*
X95729448Y-35795808D01*
X95729448Y-35795808D02*
X95919924Y-35795808D01*
X95919924Y-35795808D02*
X96015162Y-35843427D01*
X95586591Y-36414856D02*
X95681829Y-36462475D01*
X95681829Y-36462475D02*
X95919924Y-36462475D01*
X95919924Y-36462475D02*
X96015162Y-36414856D01*
X96015162Y-36414856D02*
X96062781Y-36319617D01*
X96062781Y-36319617D02*
X96062781Y-36224379D01*
X96062781Y-36224379D02*
X96015162Y-36129141D01*
X96015162Y-36129141D02*
X95919924Y-36081522D01*
X95919924Y-36081522D02*
X95681829Y-36081522D01*
X95681829Y-36081522D02*
X95586591Y-36033903D01*
X95110400Y-35795808D02*
X95110400Y-36462475D01*
X95110400Y-35891046D02*
X95062781Y-35843427D01*
X95062781Y-35843427D02*
X94967543Y-35795808D01*
X94967543Y-35795808D02*
X94824686Y-35795808D01*
X94824686Y-35795808D02*
X94729448Y-35843427D01*
X94729448Y-35843427D02*
X94681829Y-35938665D01*
X94681829Y-35938665D02*
X94681829Y-36462475D01*
X94062781Y-36462475D02*
X94158019Y-36414856D01*
X94158019Y-36414856D02*
X94205638Y-36367236D01*
X94205638Y-36367236D02*
X94253257Y-36271998D01*
X94253257Y-36271998D02*
X94253257Y-35986284D01*
X94253257Y-35986284D02*
X94205638Y-35891046D01*
X94205638Y-35891046D02*
X94158019Y-35843427D01*
X94158019Y-35843427D02*
X94062781Y-35795808D01*
X94062781Y-35795808D02*
X93919924Y-35795808D01*
X93919924Y-35795808D02*
X93824686Y-35843427D01*
X93824686Y-35843427D02*
X93777067Y-35891046D01*
X93777067Y-35891046D02*
X93729448Y-35986284D01*
X93729448Y-35986284D02*
X93729448Y-36271998D01*
X93729448Y-36271998D02*
X93777067Y-36367236D01*
X93777067Y-36367236D02*
X93824686Y-36414856D01*
X93824686Y-36414856D02*
X93919924Y-36462475D01*
X93919924Y-36462475D02*
X94062781Y-36462475D01*
X101919925Y-38072419D02*
X102396115Y-38072419D01*
X102396115Y-38072419D02*
X102396115Y-37072419D01*
X101443734Y-38072419D02*
X101538972Y-38024800D01*
X101538972Y-38024800D02*
X101586591Y-37977180D01*
X101586591Y-37977180D02*
X101634210Y-37881942D01*
X101634210Y-37881942D02*
X101634210Y-37596228D01*
X101634210Y-37596228D02*
X101586591Y-37500990D01*
X101586591Y-37500990D02*
X101538972Y-37453371D01*
X101538972Y-37453371D02*
X101443734Y-37405752D01*
X101443734Y-37405752D02*
X101300877Y-37405752D01*
X101300877Y-37405752D02*
X101205639Y-37453371D01*
X101205639Y-37453371D02*
X101158020Y-37500990D01*
X101158020Y-37500990D02*
X101110401Y-37596228D01*
X101110401Y-37596228D02*
X101110401Y-37881942D01*
X101110401Y-37881942D02*
X101158020Y-37977180D01*
X101158020Y-37977180D02*
X101205639Y-38024800D01*
X101205639Y-38024800D02*
X101300877Y-38072419D01*
X101300877Y-38072419D02*
X101443734Y-38072419D01*
X100681829Y-38072419D02*
X100681829Y-37405752D01*
X100681829Y-37596228D02*
X100634210Y-37500990D01*
X100634210Y-37500990D02*
X100586591Y-37453371D01*
X100586591Y-37453371D02*
X100491353Y-37405752D01*
X100491353Y-37405752D02*
X100396115Y-37405752D01*
X99634210Y-38072419D02*
X99634210Y-37072419D01*
X99634210Y-38024800D02*
X99729448Y-38072419D01*
X99729448Y-38072419D02*
X99919924Y-38072419D01*
X99919924Y-38072419D02*
X100015162Y-38024800D01*
X100015162Y-38024800D02*
X100062781Y-37977180D01*
X100062781Y-37977180D02*
X100110400Y-37881942D01*
X100110400Y-37881942D02*
X100110400Y-37596228D01*
X100110400Y-37596228D02*
X100062781Y-37500990D01*
X100062781Y-37500990D02*
X100015162Y-37453371D01*
X100015162Y-37453371D02*
X99919924Y-37405752D01*
X99919924Y-37405752D02*
X99729448Y-37405752D01*
X99729448Y-37405752D02*
X99634210Y-37453371D01*
X98443733Y-37786704D02*
X97967543Y-37786704D01*
X98538971Y-38072419D02*
X98205638Y-37072419D01*
X98205638Y-37072419D02*
X97872305Y-38072419D01*
X97110400Y-38072419D02*
X97110400Y-37548609D01*
X97110400Y-37548609D02*
X97158019Y-37453371D01*
X97158019Y-37453371D02*
X97253257Y-37405752D01*
X97253257Y-37405752D02*
X97443733Y-37405752D01*
X97443733Y-37405752D02*
X97538971Y-37453371D01*
X97110400Y-38024800D02*
X97205638Y-38072419D01*
X97205638Y-38072419D02*
X97443733Y-38072419D01*
X97443733Y-38072419D02*
X97538971Y-38024800D01*
X97538971Y-38024800D02*
X97586590Y-37929561D01*
X97586590Y-37929561D02*
X97586590Y-37834323D01*
X97586590Y-37834323D02*
X97538971Y-37739085D01*
X97538971Y-37739085D02*
X97443733Y-37691466D01*
X97443733Y-37691466D02*
X97205638Y-37691466D01*
X97205638Y-37691466D02*
X97110400Y-37643847D01*
X96729447Y-37405752D02*
X96491352Y-38072419D01*
X96253257Y-37405752D02*
X96491352Y-38072419D01*
X96491352Y-38072419D02*
X96586590Y-38310514D01*
X96586590Y-38310514D02*
X96634209Y-38358133D01*
X96634209Y-38358133D02*
X96729447Y-38405752D01*
X95443733Y-38072419D02*
X95443733Y-37548609D01*
X95443733Y-37548609D02*
X95491352Y-37453371D01*
X95491352Y-37453371D02*
X95586590Y-37405752D01*
X95586590Y-37405752D02*
X95777066Y-37405752D01*
X95777066Y-37405752D02*
X95872304Y-37453371D01*
X95443733Y-38024800D02*
X95538971Y-38072419D01*
X95538971Y-38072419D02*
X95777066Y-38072419D01*
X95777066Y-38072419D02*
X95872304Y-38024800D01*
X95872304Y-38024800D02*
X95919923Y-37929561D01*
X95919923Y-37929561D02*
X95919923Y-37834323D01*
X95919923Y-37834323D02*
X95872304Y-37739085D01*
X95872304Y-37739085D02*
X95777066Y-37691466D01*
X95777066Y-37691466D02*
X95538971Y-37691466D01*
X95538971Y-37691466D02*
X95443733Y-37643847D01*
X94967542Y-37405752D02*
X94967542Y-38072419D01*
X94967542Y-37500990D02*
X94919923Y-37453371D01*
X94919923Y-37453371D02*
X94824685Y-37405752D01*
X94824685Y-37405752D02*
X94681828Y-37405752D01*
X94681828Y-37405752D02*
X94586590Y-37453371D01*
X94586590Y-37453371D02*
X94538971Y-37548609D01*
X94538971Y-37548609D02*
X94538971Y-38072419D01*
X93300875Y-38072419D02*
X93300875Y-37072419D01*
X92681828Y-38072419D02*
X92777066Y-38024800D01*
X92777066Y-38024800D02*
X92824685Y-37929561D01*
X92824685Y-37929561D02*
X92824685Y-37072419D01*
X92396113Y-37405752D02*
X92158018Y-38072419D01*
X91919923Y-37405752D02*
X92158018Y-38072419D01*
X92158018Y-38072419D02*
X92253256Y-38310514D01*
X92253256Y-38310514D02*
X92300875Y-38358133D01*
X92300875Y-38358133D02*
X92396113Y-38405752D01*
X91110399Y-38072419D02*
X91110399Y-37548609D01*
X91110399Y-37548609D02*
X91158018Y-37453371D01*
X91158018Y-37453371D02*
X91253256Y-37405752D01*
X91253256Y-37405752D02*
X91443732Y-37405752D01*
X91443732Y-37405752D02*
X91538970Y-37453371D01*
X91110399Y-38024800D02*
X91205637Y-38072419D01*
X91205637Y-38072419D02*
X91443732Y-38072419D01*
X91443732Y-38072419D02*
X91538970Y-38024800D01*
X91538970Y-38024800D02*
X91586589Y-37929561D01*
X91586589Y-37929561D02*
X91586589Y-37834323D01*
X91586589Y-37834323D02*
X91538970Y-37739085D01*
X91538970Y-37739085D02*
X91443732Y-37691466D01*
X91443732Y-37691466D02*
X91205637Y-37691466D01*
X91205637Y-37691466D02*
X91110399Y-37643847D01*
X90681827Y-38024800D02*
X90586589Y-38072419D01*
X90586589Y-38072419D02*
X90396113Y-38072419D01*
X90396113Y-38072419D02*
X90300875Y-38024800D01*
X90300875Y-38024800D02*
X90253256Y-37929561D01*
X90253256Y-37929561D02*
X90253256Y-37881942D01*
X90253256Y-37881942D02*
X90300875Y-37786704D01*
X90300875Y-37786704D02*
X90396113Y-37739085D01*
X90396113Y-37739085D02*
X90538970Y-37739085D01*
X90538970Y-37739085D02*
X90634208Y-37691466D01*
X90634208Y-37691466D02*
X90681827Y-37596228D01*
X90681827Y-37596228D02*
X90681827Y-37548609D01*
X90681827Y-37548609D02*
X90634208Y-37453371D01*
X90634208Y-37453371D02*
X90538970Y-37405752D01*
X90538970Y-37405752D02*
X90396113Y-37405752D01*
X90396113Y-37405752D02*
X90300875Y-37453371D01*
X89205636Y-37405752D02*
X88824684Y-37405752D01*
X89062779Y-37072419D02*
X89062779Y-37929561D01*
X89062779Y-37929561D02*
X89015160Y-38024800D01*
X89015160Y-38024800D02*
X88919922Y-38072419D01*
X88919922Y-38072419D02*
X88824684Y-38072419D01*
X88491350Y-38072419D02*
X88491350Y-37072419D01*
X88062779Y-38072419D02*
X88062779Y-37548609D01*
X88062779Y-37548609D02*
X88110398Y-37453371D01*
X88110398Y-37453371D02*
X88205636Y-37405752D01*
X88205636Y-37405752D02*
X88348493Y-37405752D01*
X88348493Y-37405752D02*
X88443731Y-37453371D01*
X88443731Y-37453371D02*
X88491350Y-37500990D01*
X87205636Y-38024800D02*
X87300874Y-38072419D01*
X87300874Y-38072419D02*
X87491350Y-38072419D01*
X87491350Y-38072419D02*
X87586588Y-38024800D01*
X87586588Y-38024800D02*
X87634207Y-37929561D01*
X87634207Y-37929561D02*
X87634207Y-37548609D01*
X87634207Y-37548609D02*
X87586588Y-37453371D01*
X87586588Y-37453371D02*
X87491350Y-37405752D01*
X87491350Y-37405752D02*
X87300874Y-37405752D01*
X87300874Y-37405752D02*
X87205636Y-37453371D01*
X87205636Y-37453371D02*
X87158017Y-37548609D01*
X87158017Y-37548609D02*
X87158017Y-37643847D01*
X87158017Y-37643847D02*
X87634207Y-37739085D01*
X86015159Y-37167657D02*
X85967540Y-37120038D01*
X85967540Y-37120038D02*
X85872302Y-37072419D01*
X85872302Y-37072419D02*
X85634207Y-37072419D01*
X85634207Y-37072419D02*
X85538969Y-37120038D01*
X85538969Y-37120038D02*
X85491350Y-37167657D01*
X85491350Y-37167657D02*
X85443731Y-37262895D01*
X85443731Y-37262895D02*
X85443731Y-37358133D01*
X85443731Y-37358133D02*
X85491350Y-37500990D01*
X85491350Y-37500990D02*
X86062778Y-38072419D01*
X86062778Y-38072419D02*
X85443731Y-38072419D01*
X85015159Y-37405752D02*
X85015159Y-38072419D01*
X85015159Y-37500990D02*
X84967540Y-37453371D01*
X84967540Y-37453371D02*
X84872302Y-37405752D01*
X84872302Y-37405752D02*
X84729445Y-37405752D01*
X84729445Y-37405752D02*
X84634207Y-37453371D01*
X84634207Y-37453371D02*
X84586588Y-37548609D01*
X84586588Y-37548609D02*
X84586588Y-38072419D01*
X83681826Y-38072419D02*
X83681826Y-37072419D01*
X83681826Y-38024800D02*
X83777064Y-38072419D01*
X83777064Y-38072419D02*
X83967540Y-38072419D01*
X83967540Y-38072419D02*
X84062778Y-38024800D01*
X84062778Y-38024800D02*
X84110397Y-37977180D01*
X84110397Y-37977180D02*
X84158016Y-37881942D01*
X84158016Y-37881942D02*
X84158016Y-37596228D01*
X84158016Y-37596228D02*
X84110397Y-37500990D01*
X84110397Y-37500990D02*
X84062778Y-37453371D01*
X84062778Y-37453371D02*
X83967540Y-37405752D01*
X83967540Y-37405752D02*
X83777064Y-37405752D01*
X83777064Y-37405752D02*
X83681826Y-37453371D01*
D10*
X72869819Y-65158207D02*
X72393628Y-64824874D01*
X72869819Y-64586779D02*
X71869819Y-64586779D01*
X71869819Y-64586779D02*
X71869819Y-64967731D01*
X71869819Y-64967731D02*
X71917438Y-65062969D01*
X71917438Y-65062969D02*
X71965057Y-65110588D01*
X71965057Y-65110588D02*
X72060295Y-65158207D01*
X72060295Y-65158207D02*
X72203152Y-65158207D01*
X72203152Y-65158207D02*
X72298390Y-65110588D01*
X72298390Y-65110588D02*
X72346009Y-65062969D01*
X72346009Y-65062969D02*
X72393628Y-64967731D01*
X72393628Y-64967731D02*
X72393628Y-64586779D01*
X71869819Y-65491541D02*
X72869819Y-66158207D01*
X71869819Y-66158207D02*
X72869819Y-65491541D01*
X71965057Y-66491541D02*
X71917438Y-66539160D01*
X71917438Y-66539160D02*
X71869819Y-66634398D01*
X71869819Y-66634398D02*
X71869819Y-66872493D01*
X71869819Y-66872493D02*
X71917438Y-66967731D01*
X71917438Y-66967731D02*
X71965057Y-67015350D01*
X71965057Y-67015350D02*
X72060295Y-67062969D01*
X72060295Y-67062969D02*
X72155533Y-67062969D01*
X72155533Y-67062969D02*
X72298390Y-67015350D01*
X72298390Y-67015350D02*
X72869819Y-66443922D01*
X72869819Y-66443922D02*
X72869819Y-67062969D01*
M02*
