%TF.GenerationSoftware,KiCad,Pcbnew,9.0.6*%
%TF.CreationDate,2026-02-04T00:25:10-06:00*%
%TF.ProjectId,pcblunarroverrfd900x modem,7063626c-756e-4617-9272-6f7665727266,rev?*%
%TF.SameCoordinates,Original*%
%TF.FileFunction,Copper,L1,Top*%
%TF.FilePolarity,Positive*%
%FSLAX46Y46*%
G04 Gerber Fmt 4.6, Leading zero omitted, Abs format (unit mm)*
G04 Created by KiCad (PCBNEW 9.0.6) date 2026-02-04 00:25:10*
%MOMM*%
%LPD*%
G01*
G04 APERTURE LIST*
G04 Aperture macros list*
%AMRoundRect*
0 Rectangle with rounded corners*
0 $1 Rounding radius*
0 $2 $3 $4 $5 $6 $7 $8 $9 X,Y pos of 4 corners*
0 Add a 4 corners polygon primitive as box body*
4,1,4,$2,$3,$4,$5,$6,$7,$8,$9,$2,$3,0*
0 Add four circle primitives for the rounded corners*
1,1,$1+$1,$2,$3*
1,1,$1+$1,$4,$5*
1,1,$1+$1,$6,$7*
1,1,$1+$1,$8,$9*
0 Add four rect primitives between the rounded corners*
20,1,$1+$1,$2,$3,$4,$5,0*
20,1,$1+$1,$4,$5,$6,$7,0*
20,1,$1+$1,$6,$7,$8,$9,0*
20,1,$1+$1,$8,$9,$2,$3,0*%
G04 Aperture macros list end*
%TA.AperFunction,ComponentPad*%
%ADD10C,1.400000*%
%TD*%
%TA.AperFunction,ComponentPad*%
%ADD11R,1.700000X1.700000*%
%TD*%
%TA.AperFunction,ComponentPad*%
%ADD12C,1.700000*%
%TD*%
%TA.AperFunction,ComponentPad*%
%ADD13RoundRect,0.250000X-0.550000X0.550000X-0.550000X-0.550000X0.550000X-0.550000X0.550000X0.550000X0*%
%TD*%
%TA.AperFunction,ComponentPad*%
%ADD14C,1.600000*%
%TD*%
%TA.AperFunction,ComponentPad*%
%ADD15RoundRect,0.250000X0.550000X0.550000X-0.550000X0.550000X-0.550000X-0.550000X0.550000X-0.550000X0*%
%TD*%
%TA.AperFunction,ComponentPad*%
%ADD16R,2.000000X2.000000*%
%TD*%
%TA.AperFunction,ComponentPad*%
%ADD17C,2.000000*%
%TD*%
%TA.AperFunction,ComponentPad*%
%ADD18R,1.879600X1.879600*%
%TD*%
%TA.AperFunction,ComponentPad*%
%ADD19C,1.879600*%
%TD*%
%TA.AperFunction,ComponentPad*%
%ADD20R,1.800000X1.800000*%
%TD*%
%TA.AperFunction,ComponentPad*%
%ADD21C,1.800000*%
%TD*%
%TA.AperFunction,ComponentPad*%
%ADD22R,3.500000X3.500000*%
%TD*%
%TA.AperFunction,ComponentPad*%
%ADD23RoundRect,0.750000X-0.750000X-1.000000X0.750000X-1.000000X0.750000X1.000000X-0.750000X1.000000X0*%
%TD*%
%TA.AperFunction,ComponentPad*%
%ADD24RoundRect,0.875000X-0.875000X-0.875000X0.875000X-0.875000X0.875000X0.875000X-0.875000X0.875000X0*%
%TD*%
%TA.AperFunction,ViaPad*%
%ADD25C,0.600000*%
%TD*%
%TA.AperFunction,Conductor*%
%ADD26C,0.200000*%
%TD*%
G04 APERTURE END LIST*
D10*
%TO.P,1k,1*%
%TO.N,RTK-jet*%
X186100000Y-99800000D03*
%TO.P,1k,2*%
%TO.N,Net-(D1-A)*%
X186100000Y-102340000D03*
%TD*%
D11*
%TO.P,J14,1,Pin_1*%
%TO.N,SDA*%
X140400000Y-83125000D03*
D12*
%TO.P,J14,2,Pin_2*%
%TO.N,Net-(J11-Pin_1)*%
X140400000Y-80585000D03*
%TD*%
D13*
%TO.P,10uF2,1*%
%TO.N,+5V*%
X140300000Y-60000000D03*
D14*
%TO.P,10uF2,2*%
%TO.N,GND*%
X140300000Y-62000000D03*
%TD*%
D11*
%TO.P,J10,1,Pin_1*%
%TO.N,Net-(J10-Pin_1)*%
X87980000Y-43400000D03*
D12*
%TO.P,J10,2,Pin_2*%
%TO.N,CTS-jet*%
X85440000Y-43400000D03*
%TD*%
D13*
%TO.P,1000uf1,1*%
%TO.N,+5V*%
X83500000Y-96500000D03*
D14*
%TO.P,1000uf1,2*%
%TO.N,GND*%
X83500000Y-98500000D03*
%TD*%
D11*
%TO.P,J3,1,Pin_1*%
%TO.N,CTS-esp*%
X99000000Y-83700000D03*
D12*
%TO.P,J3,2,Pin_2*%
%TO.N,Net-(J10-Pin_1)*%
X99000000Y-81160000D03*
%TD*%
D11*
%TO.P,J4,1,Pin_1*%
%TO.N,RX-esp*%
X103700000Y-83700000D03*
D12*
%TO.P,J4,2,Pin_2*%
%TO.N,Net-(J2-Pin_8)*%
X103700000Y-81160000D03*
%TD*%
D11*
%TO.P,J9,1,Pin_1*%
%TO.N,Net-(J2-Pin_10)*%
X87940000Y-48600000D03*
D12*
%TO.P,J9,2,Pin_2*%
%TO.N,TX-jet*%
X85400000Y-48600000D03*
%TD*%
D15*
%TO.P,10uF1,1*%
%TO.N,+5V*%
X175750000Y-49000000D03*
D14*
%TO.P,10uF1,2*%
%TO.N,GND*%
X173750000Y-49000000D03*
%TD*%
D16*
%TO.P,U1,1,3V3*%
%TO.N,unconnected-(U1-3V3-Pad1)*%
X109500000Y-59760000D03*
D17*
%TO.P,U1,2,GND*%
%TO.N,GND*%
X109500000Y-62300000D03*
%TO.P,U1,3,D15*%
%TO.N,unconnected-(U1-D15-Pad3)*%
X109500000Y-64840000D03*
%TO.P,U1,4,D2*%
%TO.N,unconnected-(U1-D2-Pad4)*%
X109500000Y-67380000D03*
%TO.P,U1,5,D4*%
%TO.N,unconnected-(U1-D4-Pad5)*%
X109500000Y-69920000D03*
%TO.P,U1,6,RX2*%
%TO.N,TX-jet*%
X109500000Y-72460000D03*
%TO.P,U1,7,TX2*%
%TO.N,RX-jet*%
X109500000Y-75000000D03*
%TO.P,U1,8,D5*%
%TO.N,unconnected-(U1-D5-Pad8)*%
X109500000Y-77540000D03*
%TO.P,U1,9,D18*%
%TO.N,RST*%
X109500000Y-80080000D03*
%TO.P,U1,10,D19*%
%TO.N,INT*%
X109500000Y-82620000D03*
%TO.P,U1,11,D21*%
%TO.N,SDA*%
X109500000Y-85160000D03*
%TO.P,U1,12,RX0*%
%TO.N,RX-esp*%
X109500000Y-87700000D03*
%TO.P,U1,13,TX0*%
%TO.N,TX-esp*%
X109500000Y-90240000D03*
%TO.P,U1,14,D22*%
%TO.N,SCL*%
X109500000Y-92780000D03*
%TO.P,U1,15,D23*%
%TO.N,RTS-esp*%
X109500000Y-95320000D03*
%TO.P,U1,16,EN*%
%TO.N,unconnected-(U1-EN-Pad16)*%
X134900000Y-95320000D03*
%TO.P,U1,17,VP*%
%TO.N,unconnected-(U1-VP-Pad17)*%
X134900000Y-92780000D03*
%TO.P,U1,18,VN*%
%TO.N,unconnected-(U1-VN-Pad18)*%
X134900000Y-90240000D03*
%TO.P,U1,19,D34*%
%TO.N,unconnected-(U1-D34-Pad19)*%
X134900000Y-87700000D03*
%TO.P,U1,20,D35*%
%TO.N,unconnected-(U1-D35-Pad20)*%
X134900000Y-85160000D03*
%TO.P,U1,21,D32*%
%TO.N,unconnected-(U1-D32-Pad21)*%
X134900000Y-82620000D03*
%TO.P,U1,22,D33*%
%TO.N,unconnected-(U1-D33-Pad22)*%
X134900000Y-80080000D03*
%TO.P,U1,23,D25*%
%TO.N,CTS-esp*%
X134900000Y-77540000D03*
%TO.P,U1,24,D26*%
%TO.N,unconnected-(U1-D26-Pad24)*%
X134900000Y-75000000D03*
%TO.P,U1,25,D27*%
%TO.N,unconnected-(U1-D27-Pad25)*%
X134900000Y-72460000D03*
%TO.P,U1,26,D14*%
%TO.N,unconnected-(U1-D14-Pad26)*%
X134900000Y-69920000D03*
%TO.P,U1,27,D12*%
%TO.N,unconnected-(U1-D12-Pad27)*%
X134900000Y-67380000D03*
%TO.P,U1,28,D13*%
%TO.N,unconnected-(U1-D13-Pad28)*%
X134900000Y-64840000D03*
%TO.P,U1,29,GND*%
%TO.N,GND*%
X134900000Y-62300000D03*
%TO.P,U1,30,VIN*%
%TO.N,+5V*%
X134900000Y-59760000D03*
%TD*%
D18*
%TO.P,U2,J1_1*%
%TO.N,N/C*%
X160680000Y-63120000D03*
D19*
%TO.P,U2,J1_2,TX2_J1*%
%TO.N,unconnected-(U2A-TX2_J1-PadJ1_2)*%
X160680000Y-65660000D03*
%TO.P,U2,J1_3,RX2_J1*%
%TO.N,unconnected-(U2A-RX2_J1-PadJ1_3)*%
X160680000Y-68200000D03*
%TO.P,U2,J1_4,3.3V_J1*%
%TO.N,unconnected-(U2A-3.3V_J1-PadJ1_4)*%
X160680000Y-70740000D03*
%TO.P,U2,J1_5*%
%TO.N,N/C*%
X160680000Y-73280000D03*
%TO.P,U2,J1_6,GND_J1*%
%TO.N,GND*%
X160680000Y-75820000D03*
D18*
%TO.P,U2,J3_1,GND_J3*%
%TO.N,unconnected-(U2B-GND_J3-PadJ3_1)*%
X173380000Y-96140000D03*
D19*
%TO.P,U2,J3_2,3.3V_J3*%
%TO.N,unconnected-(U2B-3.3V_J3-PadJ3_2)*%
X175920000Y-96140000D03*
%TO.P,U2,J3_3,SDA/~{CS}_J3*%
%TO.N,unconnected-(U2B-SDA{slash}~{CS}_J3-PadJ3_3)*%
X178460000Y-96140000D03*
%TO.P,U2,J3_4,SCL/SCK_J3*%
%TO.N,unconnected-(U2B-SCL{slash}SCK_J3-PadJ3_4)*%
X181000000Y-96140000D03*
D18*
%TO.P,U2,J6_1,FENCE_STAT*%
%TO.N,unconnected-(U2C-FENCE_STAT-PadJ6_1)*%
X183540000Y-96140000D03*
D19*
%TO.P,U2,J6_2,RTK_STAT*%
%TO.N,RTK-jet*%
X186080000Y-96140000D03*
%TO.P,U2,J6_3,PPS*%
%TO.N,unconnected-(U2C-PPS-PadJ6_3)*%
X188620000Y-96140000D03*
%TO.P,U2,J6_4,~{RESET}*%
%TO.N,RST*%
X191160000Y-96140000D03*
%TO.P,U2,J6_5,~{SAFE}*%
%TO.N,unconnected-(U2C-~{SAFE}-PadJ6_5)*%
X193700000Y-96140000D03*
%TO.P,U2,J6_6,INT*%
%TO.N,INT*%
X196240000Y-96140000D03*
D18*
%TO.P,U2,J7_1,SCL/SCK_J7*%
%TO.N,Net-(J12-Pin_1)*%
X193700000Y-55500000D03*
D19*
%TO.P,U2,J7_2,TXO/MISO*%
%TO.N,unconnected-(U2D-TXO{slash}MISO-PadJ7_2)*%
X191160000Y-55500000D03*
%TO.P,U2,J7_3,RXI/MOSI*%
%TO.N,unconnected-(U2D-RXI{slash}MOSI-PadJ7_3)*%
X188620000Y-55500000D03*
%TO.P,U2,J7_4,SDA/~{CS}_J7*%
%TO.N,Net-(J11-Pin_1)*%
X186080000Y-55500000D03*
%TO.P,U2,J7_5,RX2_J7*%
%TO.N,Net-(J17-Pin_2)*%
X183540000Y-55500000D03*
%TO.P,U2,J7_6,TX2_J7*%
%TO.N,Net-(J16-Pin_2)*%
X181000000Y-55500000D03*
%TO.P,U2,J7_7,3.3V_J7*%
%TO.N,unconnected-(U2D-3.3V_J7-PadJ7_7)*%
X178460000Y-55500000D03*
%TO.P,U2,J7_8,5V_J7*%
%TO.N,+5V*%
X175920000Y-55500000D03*
%TO.P,U2,J7_9,GND_J7*%
%TO.N,GND*%
X173380000Y-55500000D03*
%TD*%
D11*
%TO.P,J16,1,Pin_1*%
%TO.N,RX2-jet*%
X140400000Y-90540000D03*
D12*
%TO.P,J16,2,Pin_2*%
%TO.N,Net-(J16-Pin_2)*%
X140400000Y-88000000D03*
%TD*%
D11*
%TO.P,J13,1,Pin_1*%
%TO.N,SCL*%
X145500000Y-83100000D03*
D12*
%TO.P,J13,2,Pin_2*%
%TO.N,Net-(J12-Pin_1)*%
X145500000Y-80560000D03*
%TD*%
D20*
%TO.P,D1,1,K*%
%TO.N,GND*%
X193800000Y-101100000D03*
D21*
%TO.P,D1,2,A*%
%TO.N,Net-(D1-A)*%
X191260000Y-101100000D03*
%TD*%
D15*
%TO.P,0.1uF3,1*%
%TO.N,+5V*%
X175750000Y-41250000D03*
D14*
%TO.P,0.1uF3,2*%
%TO.N,GND*%
X173750000Y-41250000D03*
%TD*%
D11*
%TO.P,J17,1,Pin_1*%
%TO.N,TX2-jet*%
X145500000Y-90500000D03*
D12*
%TO.P,J17,2,Pin_2*%
%TO.N,Net-(J17-Pin_2)*%
X145500000Y-87960000D03*
%TD*%
D11*
%TO.P,J5,1,Pin_1*%
%TO.N,TX-esp*%
X103700000Y-91040000D03*
D12*
%TO.P,J5,2,Pin_2*%
%TO.N,Net-(J2-Pin_10)*%
X103700000Y-88500000D03*
%TD*%
D11*
%TO.P,J12,1,Pin_1*%
%TO.N,Net-(J12-Pin_1)*%
X164100000Y-41900000D03*
D12*
%TO.P,J12,2,Pin_2*%
%TO.N,SCL-jet*%
X161560000Y-41900000D03*
%TD*%
D11*
%TO.P,J18,1,Pin_1*%
%TO.N,GND*%
X75000000Y-42640000D03*
D12*
%TO.P,J18,2,Pin_2*%
%TO.N,CTS-jet*%
X75000000Y-45180000D03*
%TO.P,J18,3,Pin_3*%
%TO.N,unconnected-(J18-Pin_3-Pad3)*%
X75000000Y-47720000D03*
%TO.P,J18,4,Pin_4*%
%TO.N,TX-jet*%
X75000000Y-50260000D03*
%TO.P,J18,5,Pin_5*%
%TO.N,RX-jet*%
X75000000Y-52800000D03*
%TO.P,J18,6,Pin_6*%
%TO.N,RTS-jet*%
X75000000Y-55340000D03*
%TO.P,J18,7,Pin_7*%
%TO.N,SDA-jet*%
X75000000Y-57880000D03*
%TO.P,J18,8,Pin_8*%
%TO.N,SCL-jet*%
X75000000Y-60420000D03*
%TO.P,J18,9,Pin_9*%
%TO.N,RTK-jet*%
X75000000Y-62960000D03*
%TO.P,J18,10,Pin_10*%
%TO.N,RX2-jet*%
X75000000Y-65500000D03*
%TO.P,J18,11,Pin_11*%
%TO.N,TX2-jet*%
X75000000Y-68040000D03*
%TD*%
D13*
%TO.P,0.1uF1,1*%
%TO.N,+5V*%
X91255112Y-96494888D03*
D14*
%TO.P,0.1uF1,2*%
%TO.N,GND*%
X91255112Y-98494888D03*
%TD*%
D13*
%TO.P,0.1uf2,1*%
%TO.N,+5V*%
X148500000Y-60000000D03*
D14*
%TO.P,0.1uf2,2*%
%TO.N,GND*%
X148500000Y-62000000D03*
%TD*%
D11*
%TO.P,J6,1,Pin_1*%
%TO.N,RTS-esp*%
X99000000Y-91000000D03*
D12*
%TO.P,J6,2,Pin_2*%
%TO.N,Net-(J2-Pin_12)*%
X99000000Y-88460000D03*
%TD*%
D11*
%TO.P,J8,1,Pin_1*%
%TO.N,Net-(J2-Pin_8)*%
X87940000Y-53500000D03*
D12*
%TO.P,J8,2,Pin_2*%
%TO.N,RX-jet*%
X85400000Y-53500000D03*
%TD*%
D11*
%TO.P,J7,1,Pin_1*%
%TO.N,Net-(J2-Pin_12)*%
X87940000Y-58400000D03*
D12*
%TO.P,J7,2,Pin_2*%
%TO.N,RTS-jet*%
X85400000Y-58400000D03*
%TD*%
D11*
%TO.P,J11,1,Pin_1*%
%TO.N,Net-(J11-Pin_1)*%
X164000000Y-47200000D03*
D12*
%TO.P,J11,2,Pin_2*%
%TO.N,SDA-jet*%
X161460000Y-47200000D03*
%TD*%
D22*
%TO.P,J1,1*%
%TO.N,+5V*%
X202000000Y-46600000D03*
D23*
%TO.P,J1,2*%
%TO.N,GND*%
X196000000Y-46600000D03*
D24*
%TO.P,J1,3*%
%TO.N,unconnected-(J1-Pad3)*%
X199000000Y-51300000D03*
%TD*%
D11*
%TO.P,J2,1,Pin_1*%
%TO.N,unconnected-(J2-Pin_1-Pad1)*%
X77500000Y-98540000D03*
D12*
%TO.P,J2,2,Pin_2*%
%TO.N,GND*%
X74960000Y-98540000D03*
%TO.P,J2,3,Pin_3*%
%TO.N,+5V*%
X77500000Y-96000000D03*
%TO.P,J2,4,Pin_4*%
%TO.N,Net-(J10-Pin_1)*%
X74960000Y-96000000D03*
%TO.P,J2,5,Pin_5*%
%TO.N,unconnected-(J2-Pin_5-Pad5)*%
X77500000Y-93460000D03*
%TO.P,J2,6,Pin_6*%
%TO.N,unconnected-(J2-Pin_6-Pad6)*%
X74960000Y-93460000D03*
%TO.P,J2,7,Pin_7*%
%TO.N,unconnected-(J2-Pin_7-Pad7)*%
X77500000Y-90920000D03*
%TO.P,J2,8,Pin_8*%
%TO.N,Net-(J2-Pin_8)*%
X74960000Y-90920000D03*
%TO.P,J2,9,Pin_9*%
%TO.N,unconnected-(J2-Pin_9-Pad9)*%
X77500000Y-88380000D03*
%TO.P,J2,10,Pin_10*%
%TO.N,Net-(J2-Pin_10)*%
X74960000Y-88380000D03*
%TO.P,J2,11,Pin_11*%
%TO.N,unconnected-(J2-Pin_11-Pad11)*%
X77500000Y-85840000D03*
%TO.P,J2,12,Pin_12*%
%TO.N,Net-(J2-Pin_12)*%
X74960000Y-85840000D03*
%TO.P,J2,13,Pin_13*%
%TO.N,unconnected-(J2-Pin_13-Pad13)*%
X77500000Y-83300000D03*
%TO.P,J2,14,Pin_14*%
%TO.N,unconnected-(J2-Pin_14-Pad14)*%
X74960000Y-83300000D03*
%TO.P,J2,15,Pin_15*%
%TO.N,unconnected-(J2-Pin_15-Pad15)*%
X77500000Y-80760000D03*
%TO.P,J2,16,Pin_16*%
%TO.N,unconnected-(J2-Pin_16-Pad16)*%
X74960000Y-80760000D03*
%TD*%
D25*
%TO.N,SCL-jet*%
X82700000Y-49400000D03*
%TO.N,TX2-jet*%
X83100000Y-55400000D03*
X88400000Y-56000000D03*
%TO.N,Net-(J10-Pin_1)*%
X72250000Y-75350000D03*
%TD*%
D26*
%TO.N,GND*%
X91500000Y-98250000D02*
X91255112Y-98494888D01*
X139960000Y-62408630D02*
X140300000Y-62068630D01*
%TO.N,+5V*%
X91500000Y-96250000D02*
X91255112Y-96494888D01*
%TO.N,RTK-jet*%
X186080000Y-99780000D02*
X186100000Y-99800000D01*
X186080000Y-96140000D02*
X186080000Y-99780000D01*
%TO.N,CTS-jet*%
X83660000Y-45180000D02*
X75000000Y-45180000D01*
X85440000Y-43400000D02*
X83660000Y-45180000D01*
%TO.N,SDA-jet*%
X161460000Y-47200000D02*
X156509000Y-42249000D01*
X86829000Y-42249000D02*
X86829000Y-44087138D01*
X156509000Y-42249000D02*
X86829000Y-42249000D01*
X76151000Y-56729000D02*
X75000000Y-57880000D01*
X86829000Y-44087138D02*
X76151000Y-54765138D01*
X76151000Y-54765138D02*
X76151000Y-56729000D01*
%TO.N,Net-(J11-Pin_1)*%
X177780000Y-47200000D02*
X186080000Y-55500000D01*
X164000000Y-47200000D02*
X177780000Y-47200000D01*
%TO.N,Net-(J12-Pin_1)*%
X164100000Y-41900000D02*
X168500000Y-37500000D01*
X193700000Y-54900000D02*
X193700000Y-55500000D01*
X168500000Y-37500000D02*
X176300000Y-37500000D01*
X164600000Y-42400000D02*
X164100000Y-41900000D01*
X176300000Y-37500000D02*
X193700000Y-54900000D01*
%TO.N,SCL-jet*%
X82700000Y-52720000D02*
X75000000Y-60420000D01*
X82700000Y-49400000D02*
X82700000Y-52720000D01*
%TO.N,Net-(J16-Pin_2)*%
X182240800Y-54259200D02*
X181000000Y-55500000D01*
X184053957Y-54259200D02*
X182240800Y-54259200D01*
X144213138Y-91979000D02*
X148815757Y-91979000D01*
X184780800Y-54986043D02*
X184053957Y-54259200D01*
X140400000Y-88165862D02*
X144213138Y-91979000D01*
X148815757Y-91979000D02*
X184780800Y-56013957D01*
X140400000Y-88000000D02*
X140400000Y-88165862D01*
X184780800Y-56013957D02*
X184780800Y-54986043D01*
%TO.N,RX2-jet*%
X140400000Y-95500000D02*
X133500000Y-102400000D01*
X133500000Y-102400000D02*
X70600000Y-102400000D01*
X70600000Y-102400000D02*
X70600000Y-69900000D01*
X140400000Y-90540000D02*
X140400000Y-95500000D01*
X70600000Y-69900000D02*
X75000000Y-65500000D01*
%TO.N,TX2-jet*%
X99600000Y-45800000D02*
X89400000Y-56000000D01*
X89400000Y-56000000D02*
X88400000Y-56000000D01*
X81400000Y-55400000D02*
X78800000Y-58000000D01*
X83100000Y-55400000D02*
X81400000Y-55400000D01*
X145500000Y-90500000D02*
X154800000Y-81200000D01*
X78800000Y-58000000D02*
X78800000Y-64240000D01*
X78800000Y-64240000D02*
X75000000Y-68040000D01*
X154800000Y-50000000D02*
X150600000Y-45800000D01*
X150600000Y-45800000D02*
X99600000Y-45800000D01*
X154800000Y-81200000D02*
X154800000Y-50000000D01*
%TO.N,Net-(J17-Pin_2)*%
X144349000Y-91651000D02*
X147389000Y-91651000D01*
X145500000Y-87960000D02*
X144349000Y-89111000D01*
X144349000Y-89111000D02*
X144349000Y-91651000D01*
X147389000Y-91651000D02*
X183540000Y-55500000D01*
%TO.N,Net-(J10-Pin_1)*%
X84249000Y-47131000D02*
X84249000Y-63351000D01*
X71400000Y-92440000D02*
X74960000Y-96000000D01*
X98960000Y-81160000D02*
X94200000Y-76400000D01*
X94200000Y-76400000D02*
X73100000Y-76400000D01*
X71400000Y-78100000D02*
X71400000Y-92440000D01*
X84249000Y-63351000D02*
X72250000Y-75350000D01*
X87980000Y-43400000D02*
X84249000Y-47131000D01*
X73100000Y-76400000D02*
X71400000Y-78100000D01*
X99000000Y-81160000D02*
X98960000Y-81160000D01*
%TO.N,Net-(J2-Pin_10)*%
X75436760Y-97151000D02*
X76111000Y-96476760D01*
X71072000Y-93739760D02*
X74483240Y-97151000D01*
X74483240Y-97151000D02*
X75436760Y-97151000D01*
X71072000Y-77964138D02*
X71072000Y-93739760D01*
X76111000Y-89531000D02*
X74960000Y-88380000D01*
X86789000Y-62247138D02*
X71072000Y-77964138D01*
X86789000Y-49751000D02*
X86789000Y-62247138D01*
X76111000Y-96476760D02*
X76111000Y-89531000D01*
X87940000Y-48600000D02*
X86789000Y-49751000D01*
%TO.N,Net-(D1-A)*%
X186100000Y-102340000D02*
X190020000Y-102340000D01*
X190020000Y-102340000D02*
X191260000Y-101100000D01*
%TO.N,CTS-esp*%
X106800000Y-75900000D02*
X106800000Y-58400000D01*
X106800000Y-58200000D02*
X106800000Y-57200000D01*
X106800000Y-58400000D02*
X106800000Y-58200000D01*
X106800000Y-57200000D02*
X114560000Y-57200000D01*
X114560000Y-57200000D02*
X134900000Y-77540000D01*
X99000000Y-83700000D02*
X106800000Y-75900000D01*
%TO.N,RX-esp*%
X103700000Y-83700000D02*
X105500000Y-83700000D01*
X106900000Y-85100000D02*
X109500000Y-87700000D01*
X105500000Y-83700000D02*
X106900000Y-85100000D01*
%TO.N,TX-esp*%
X103700000Y-91040000D02*
X108700000Y-91040000D01*
X108700000Y-91040000D02*
X109500000Y-90240000D01*
%TO.N,RTS-esp*%
X103320000Y-95320000D02*
X109500000Y-95320000D01*
X109029000Y-94849000D02*
X109500000Y-95320000D01*
X99000000Y-91000000D02*
X103320000Y-95320000D01*
%TO.N,Net-(J2-Pin_12)*%
X87940000Y-58400000D02*
X100151000Y-70611000D01*
X77976760Y-84451000D02*
X76349000Y-84451000D01*
X80116760Y-82311000D02*
X77976760Y-84451000D01*
X100151000Y-70611000D02*
X100151000Y-81636760D01*
X76349000Y-84451000D02*
X74960000Y-85840000D01*
X97531000Y-86991000D02*
X76111000Y-86991000D01*
X99476760Y-82311000D02*
X80116760Y-82311000D01*
X76111000Y-86991000D02*
X74960000Y-85840000D01*
X99000000Y-88460000D02*
X97531000Y-86991000D01*
X100151000Y-81636760D02*
X99476760Y-82311000D01*
%TD*%
M02*
