%TF.GenerationSoftware,KiCad,Pcbnew,9.0.6*%
%TF.CreationDate,2026-02-04T00:25:10-06:00*%
%TF.ProjectId,pcblunarroverrfd900x modem,7063626c-756e-4617-9272-6f7665727266,rev?*%
%TF.SameCoordinates,Original*%
%TF.FileFunction,Profile,NP*%
%FSLAX46Y46*%
G04 Gerber Fmt 4.6, Leading zero omitted, Abs format (unit mm)*
G04 Created by KiCad (PCBNEW 9.0.6) date 2026-02-04 00:25:10*
%MOMM*%
%LPD*%
G01*
G04 APERTURE LIST*
%TA.AperFunction,Profile*%
%ADD10C,0.050000*%
%TD*%
%TA.AperFunction,Profile*%
%ADD11C,0.010000*%
%TD*%
G04 APERTURE END LIST*
D10*
X78500000Y-117300000D02*
X85200000Y-117300000D01*
X181394131Y-107093211D02*
X94084150Y-107406150D01*
X78500000Y-117300000D02*
G75*
G02*
X70000000Y-108800000I0J8500000D01*
G01*
X190294529Y-117250784D02*
X196994529Y-117250784D01*
X80701000Y-35400000D02*
G75*
G02*
X74299000Y-35400000I-3201000J0D01*
G01*
X74299000Y-35400000D02*
G75*
G02*
X80701000Y-35400000I3201000J0D01*
G01*
X205000000Y-108625000D02*
G75*
G02*
X196994532Y-117250784I-9000000J325000D01*
G01*
X69983352Y-35400000D02*
G75*
G02*
X77000000Y-27900000I7516648J0D01*
G01*
X200201000Y-108625000D02*
G75*
G02*
X193799000Y-108625000I-3201000J0D01*
G01*
X193799000Y-108625000D02*
G75*
G02*
X200201000Y-108625000I3201000J0D01*
G01*
X190294529Y-117250784D02*
X181400000Y-107100000D01*
X85200000Y-117300000D02*
X94084150Y-107406287D01*
X80701000Y-108475000D02*
G75*
G02*
X74299000Y-108475000I-3201000J0D01*
G01*
X74299000Y-108475000D02*
G75*
G02*
X80701000Y-108475000I3201000J0D01*
G01*
X198000000Y-27900000D02*
X77000000Y-27900001D01*
X205000000Y-108624996D02*
X205000000Y-34900000D01*
X198000000Y-27900000D02*
G75*
G02*
X205000000Y-34900000I0J-7000000D01*
G01*
X200201000Y-34900000D02*
G75*
G02*
X193799000Y-34900000I-3201000J0D01*
G01*
X193799000Y-34900000D02*
G75*
G02*
X200201000Y-34900000I3201000J0D01*
G01*
X70000000Y-108800000D02*
X69985000Y-35400000D01*
D11*
%TO.C,U2*%
X201226000Y-87582000D02*
X201226000Y-90982000D01*
X201226000Y-90982000D02*
G75*
G02*
X201226000Y-87582000I-2697570J1700000D01*
G01*
%TD*%
M02*
