M48
; DRILL file {KiCad 9.0.3} date 2026-02-04T18:41:07-0600
; FORMAT={2:4/ absolute / inch / keep zeros}
; #@! TF.CreationDate,2026-02-04T18:41:07-06:00
; #@! TF.GenerationSoftware,Kicad,Pcbnew,9.0.3
; #@! TF.FileFunction,MixedPlating,1,4
FMAT,2
INCH
; #@! TA.AperFunction,Plated,PTH,ViaDrill
T1C0.0118
; #@! TA.AperFunction,Plated,PTH,ComponentDrill
T2C0.0276
; #@! TA.AperFunction,Plated,PTH,ComponentDrill
T3C0.0315
; #@! TA.AperFunction,Plated,PTH,ComponentDrill
T4C0.0354
; #@! TA.AperFunction,Plated,PTH,ComponentDrill
T5C0.0394
; #@! TA.AperFunction,Plated,PTH,ComponentDrill
T6C0.0400
; #@! TA.AperFunction,Plated,PTH,ComponentDrill
T7C0.0402
; #@! TA.AperFunction,NonPlated,NPTH,ComponentDrill
T8C0.1181
; #@! TA.AperFunction,NonPlated,NPTH,ComponentDrill
T9C0.1300
%
G90
G05
T1
X009567Y-028898
X013681Y-018681
X013839Y-021043
X015925Y-021279
X068898Y-044898
X070276Y-045276
X073425Y-025787
X073425Y-035383
X078346Y-043307
X080118Y-044488
X084252Y-042913
X095244Y-047441
X099803Y-045669
X099803Y-045669
X100453Y-032677
X100453Y-041929
X100917Y-032677
X100917Y-041929
T2
X054390Y-038524
X054390Y-039524
X088299Y-047441
X088299Y-048425
X089299Y-047441
X089299Y-048425
T3
X013996Y-037224
X013996Y-038012
X017049Y-037222
X017049Y-038010
X036358Y-022854
X036358Y-023642
X039587Y-022854
X039587Y-023642
X049528Y-015472
X049528Y-018524
X050315Y-015472
X050315Y-018524
T4
X056421Y-039035
X057421Y-039035
X099213Y-014157
X099213Y-015157
T5
X010634Y-031027
X010634Y-032027
X010634Y-033027
X010634Y-034027
X010634Y-035027
X010634Y-036027
X010634Y-037027
X010634Y-038027
X010650Y-016020
X010650Y-017020
X010650Y-018020
X010650Y-019020
X010650Y-020020
X010650Y-021020
X010650Y-022020
X010650Y-023020
X010650Y-024020
X010650Y-025020
X010650Y-026020
X011634Y-031027
X011634Y-032027
X011634Y-033027
X011634Y-034027
X011634Y-035027
X011634Y-036027
X011634Y-037027
X011634Y-038027
X014744Y-018366
X014744Y-020295
X014744Y-022224
X014760Y-016319
X015744Y-018366
X015744Y-020295
X015744Y-022224
X015760Y-016319
X020099Y-031185
X020099Y-032185
X020099Y-034059
X020099Y-035059
X021949Y-031185
X021949Y-032185
X021949Y-034075
X021949Y-035075
X036398Y-030959
X036398Y-031959
X036398Y-033878
X036398Y-034878
X038406Y-030949
X038406Y-031949
X038406Y-033862
X038406Y-034862
X044689Y-017815
X044728Y-015728
X045689Y-017815
X045728Y-015728
X066059Y-036193
X066059Y-037193
X066059Y-038193
X066059Y-039193
X066059Y-040193
X066059Y-041193
X066059Y-042193
X066059Y-043193
X066929Y-019169
X066929Y-020169
X066929Y-021169
X066929Y-022169
X067898Y-028346
X067898Y-029346
X067898Y-030346
X067898Y-031346
X068898Y-028346
X068898Y-029346
X068898Y-030346
X068898Y-031346
X068898Y-036189
X068898Y-037189
X068898Y-038189
X068898Y-039189
X068898Y-040189
X068898Y-041189
X068898Y-042189
X068898Y-043189
X069472Y-012795
X069472Y-013795
X069654Y-046654
X069654Y-047654
X070472Y-012795
X070472Y-013795
X070654Y-046654
X070654Y-047654
X071472Y-012795
X071472Y-013795
X071654Y-046654
X071654Y-047654
X071965Y-016902
X071965Y-017902
X071965Y-018902
X071965Y-019902
X071965Y-020902
X071965Y-021902
X071965Y-022902
X071965Y-023902
X072358Y-026579
X072358Y-027579
X072358Y-028579
X072358Y-029579
X072358Y-030579
X072358Y-031579
X072358Y-032579
X072358Y-033579
X072472Y-012795
X072472Y-013795
X072654Y-046654
X072654Y-047654
X073819Y-037476
X073819Y-038476
X073819Y-039476
X073819Y-040476
X074803Y-016898
X074803Y-017898
X074803Y-018898
X074803Y-019898
X074803Y-020898
X074803Y-021898
X074803Y-022898
X074803Y-023898
X075197Y-026575
X075197Y-027575
X075197Y-028575
X075197Y-029575
X075197Y-030575
X075197Y-031575
X075197Y-032575
X075197Y-033575
X076689Y-036343
X076689Y-037343
X076689Y-038343
X076689Y-039343
X076689Y-040343
X076689Y-041343
X076689Y-042343
X076689Y-043343
X077756Y-019169
X077756Y-020169
X077756Y-021169
X077756Y-022169
X079528Y-036339
X079528Y-037339
X079528Y-038339
X079528Y-039339
X079528Y-040339
X079528Y-041339
X079528Y-042339
X079528Y-043339
X079638Y-012709
X079638Y-013709
X079693Y-046654
X079693Y-047654
X080638Y-012709
X080638Y-013709
X080693Y-046654
X080693Y-047654
X080906Y-026921
X080906Y-027921
X080906Y-028921
X080906Y-029921
X081638Y-012709
X081638Y-013709
X081693Y-046654
X081693Y-047654
X082480Y-016732
X082480Y-017732
X082480Y-018732
X082480Y-019732
X082480Y-020732
X082480Y-021732
X082480Y-022732
X082480Y-023732
X082638Y-012709
X082638Y-013709
X082693Y-046654
X082693Y-047654
X083268Y-037189
X083268Y-038189
X083268Y-039189
X083268Y-040189
X085236Y-025559
X085236Y-026559
X085236Y-027559
X085236Y-028559
X085236Y-029559
X085236Y-030559
X085236Y-031559
X085236Y-032559
X085236Y-033559
X085236Y-034559
X085319Y-016728
X085319Y-017728
X085319Y-018728
X085319Y-019728
X085319Y-020728
X085319Y-021728
X085319Y-022728
X085319Y-023728
X086614Y-036510
X086614Y-037510
X092323Y-018504
X092898Y-011614
X092898Y-013583
X093323Y-018504
X093898Y-011614
X093898Y-013583
X094898Y-011614
X094898Y-013583
X094970Y-018504
X095970Y-018504
X097244Y-011614
X098031Y-043654
X098031Y-044654
X098031Y-045654
X098031Y-046654
X098711Y-016929
X099711Y-016929
X100000Y-027543
X100000Y-028543
X100000Y-029543
T6
X044382Y-024083
X044382Y-025083
X044382Y-026083
X044382Y-027083
X044382Y-028083
X044382Y-029083
X049382Y-021083
X049382Y-037083
X050382Y-021083
X050382Y-037083
X051382Y-021083
X051382Y-037083
X052382Y-021083
X052382Y-037083
X053382Y-021083
X053382Y-037083
X054382Y-021083
X054382Y-037083
X055382Y-021083
X055382Y-037083
X056382Y-021083
X056382Y-037083
X057382Y-021083
X057382Y-037083
X058382Y-037083
T7
X024232Y-022760
X024232Y-023760
X024232Y-024760
X024232Y-025760
X024232Y-026760
X024232Y-027760
X024232Y-028760
X024232Y-029760
X024232Y-030760
X024232Y-031760
X024232Y-032760
X024232Y-033760
X024232Y-034760
X024232Y-035760
X024232Y-036760
X034232Y-022760
X034232Y-023760
X034232Y-024760
X034232Y-025760
X034232Y-026760
X034232Y-027760
X034232Y-028760
X034232Y-029760
X034232Y-030760
X034232Y-031760
X034232Y-032760
X034232Y-033760
X034232Y-034760
X034232Y-035760
X034232Y-036760
X088110Y-022502
X088110Y-023502
X088110Y-024502
X088110Y-025502
X088110Y-026502
X088110Y-027502
X088110Y-028502
X088110Y-029502
X088110Y-030502
X088110Y-031502
X088110Y-032502
X088110Y-033502
X088110Y-034502
X088110Y-035502
X088110Y-036502
X098110Y-022502
X098110Y-023502
X098110Y-024502
X098110Y-025502
X098110Y-026502
X098110Y-027502
X098110Y-028502
X098110Y-029502
X098110Y-030502
X098110Y-031502
X098110Y-032502
X098110Y-033502
X098110Y-034502
X098110Y-035502
X098110Y-036502
T8
X024398Y-019626
X024398Y-038110
X034047Y-019626
X034047Y-038110
X088295Y-021152
X088295Y-039636
X097945Y-021152
X097945Y-039636
T9
X044882Y-021583
X044882Y-036583
X059882Y-021583
X059882Y-036583
T5
X058288Y-017185G85X058288Y-017972
G05
X059075Y-019429G85X059862Y-019429
G05
X060650Y-017185G85X060650Y-017972
G05
X087520Y-014567G85X087520Y-015354
G05
X089764Y-013780G85X088976Y-013780
G05
X089862Y-016142G85X088878Y-016142
G05
M30
