%TF.GenerationSoftware,KiCad,Pcbnew,9.0.3*%
%TF.CreationDate,2026-02-04T18:41:09-06:00*%
%TF.ProjectId,pcblunarroverrfd900x modem,7063626c-756e-4617-9272-6f7665727266,rev?*%
%TF.SameCoordinates,Original*%
%TF.FileFunction,Soldermask,Top*%
%TF.FilePolarity,Negative*%
%FSLAX46Y46*%
G04 Gerber Fmt 4.6, Leading zero omitted, Abs format (unit mm)*
G04 Created by KiCad (PCBNEW 9.0.3) date 2026-02-04 18:41:09*
%MOMM*%
%LPD*%
G01*
G04 APERTURE LIST*
G04 Aperture macros list*
%AMRoundRect*
0 Rectangle with rounded corners*
0 $1 Rounding radius*
0 $2 $3 $4 $5 $6 $7 $8 $9 X,Y pos of 4 corners*
0 Add a 4 corners polygon primitive as box body*
4,1,4,$2,$3,$4,$5,$6,$7,$8,$9,$2,$3,0*
0 Add four circle primitives for the rounded corners*
1,1,$1+$1,$2,$3*
1,1,$1+$1,$4,$5*
1,1,$1+$1,$6,$7*
1,1,$1+$1,$8,$9*
0 Add four rect primitives between the rounded corners*
20,1,$1+$1,$2,$3,$4,$5,0*
20,1,$1+$1,$4,$5,$6,$7,0*
20,1,$1+$1,$6,$7,$8,$9,0*
20,1,$1+$1,$8,$9,$2,$3,0*%
G04 Aperture macros list end*
%ADD10C,1.700000*%
%ADD11R,1.700000X1.700000*%
%ADD12RoundRect,0.250000X0.600000X-0.600000X0.600000X0.600000X-0.600000X0.600000X-0.600000X-0.600000X0*%
%ADD13C,1.800000*%
%ADD14R,1.800000X1.800000*%
%ADD15RoundRect,0.250000X-0.600000X-0.600000X0.600000X-0.600000X0.600000X0.600000X-0.600000X0.600000X0*%
%ADD16C,1.400000*%
%ADD17C,2.204000*%
%ADD18RoundRect,0.102000X1.000000X1.000000X-1.000000X1.000000X-1.000000X-1.000000X1.000000X-1.000000X0*%
%ADD19C,3.000000*%
%ADD20O,2.204000X4.204000*%
%ADD21O,4.204000X2.204000*%
%ADD22O,4.604000X2.404000*%
%ADD23RoundRect,0.250000X-0.550000X0.550000X-0.550000X-0.550000X0.550000X-0.550000X0.550000X0.550000X0*%
%ADD24C,1.600000*%
%ADD25RoundRect,0.250000X0.550000X0.550000X-0.550000X0.550000X-0.550000X-0.550000X0.550000X-0.550000X0*%
%ADD26RoundRect,0.102000X-1.000000X-1.000000X1.000000X-1.000000X1.000000X1.000000X-1.000000X1.000000X0*%
%ADD27C,3.302000*%
%ADD28RoundRect,0.102000X-0.939800X-0.939800X0.939800X-0.939800X0.939800X0.939800X-0.939800X0.939800X0*%
%ADD29C,2.083600*%
%ADD30R,3.500000X3.500000*%
%ADD31RoundRect,0.750000X-0.750000X-1.000000X0.750000X-1.000000X0.750000X1.000000X-0.750000X1.000000X0*%
%ADD32RoundRect,0.875000X-0.875000X-0.875000X0.875000X-0.875000X0.875000X0.875000X-0.875000X0.875000X0*%
G04 APERTURE END LIST*
D10*
%TO.C,R5*%
X253265000Y-43000000D03*
D11*
X250725000Y-43000000D03*
%TD*%
D10*
%TO.C,MC1*%
X176460000Y-32500000D03*
X179000000Y-32500000D03*
X181540000Y-32500000D03*
X184080000Y-32500000D03*
X184080000Y-35040000D03*
X181540000Y-35040000D03*
X179000000Y-35040000D03*
D12*
X176460000Y-35040000D03*
%TD*%
D13*
%TO.C,D1*%
X252000000Y-35960000D03*
D14*
X252000000Y-38500000D03*
%TD*%
D11*
%TO.C,SW5*%
X175000000Y-91920000D03*
D10*
X175000000Y-94460000D03*
X175000000Y-97000000D03*
X175000000Y-99540000D03*
X175000000Y-102080000D03*
X175000000Y-104620000D03*
X175000000Y-107160000D03*
X175000000Y-109700000D03*
X167790000Y-109710000D03*
X167790000Y-107170000D03*
X167790000Y-104630000D03*
X167790000Y-102090000D03*
X167790000Y-99550000D03*
X167790000Y-97010000D03*
X167790000Y-94470000D03*
D11*
X167790000Y-91930000D03*
%TD*%
%TO.C,SW4*%
X191000000Y-67500000D03*
D10*
X191000000Y-70040000D03*
X191000000Y-72580000D03*
X191000000Y-75120000D03*
X191000000Y-77660000D03*
X191000000Y-80200000D03*
X191000000Y-82740000D03*
X191000000Y-85280000D03*
X183790000Y-85290000D03*
X183790000Y-82750000D03*
X183790000Y-80210000D03*
X183790000Y-77670000D03*
X183790000Y-75130000D03*
X183790000Y-72590000D03*
X183790000Y-70050000D03*
D11*
X183790000Y-67510000D03*
%TD*%
D10*
%TO.C,RE2*%
X197500000Y-56310000D03*
X197500000Y-53770000D03*
X197500000Y-51230000D03*
D11*
X197500000Y-48690000D03*
%TD*%
D10*
%TO.C,MC4*%
X175000000Y-72000000D03*
X175000000Y-74540000D03*
X175000000Y-77080000D03*
X175000000Y-79620000D03*
X172460000Y-79620000D03*
X172460000Y-77080000D03*
X172460000Y-74540000D03*
D15*
X172460000Y-72000000D03*
%TD*%
D16*
%TO.C,R1*%
X226820000Y-123000000D03*
X224280000Y-123000000D03*
%TD*%
D10*
%TO.C,R3*%
X243765000Y-47000000D03*
D11*
X241225000Y-47000000D03*
%TD*%
%TO.C,J2*%
X247000000Y-29500000D03*
%TD*%
D10*
%TO.C,MC2*%
X202280000Y-32280000D03*
X204820000Y-32280000D03*
X207360000Y-32280000D03*
X209900000Y-32280000D03*
X209900000Y-34820000D03*
X207360000Y-34820000D03*
X204820000Y-34820000D03*
D12*
X202280000Y-34820000D03*
%TD*%
D10*
%TO.C,RE1*%
X170000000Y-56310000D03*
X170000000Y-53770000D03*
X170000000Y-51230000D03*
D11*
X170000000Y-48690000D03*
%TD*%
%TO.C,SW2*%
X209500000Y-60280000D03*
D10*
X209500000Y-57740000D03*
X209500000Y-55200000D03*
X209500000Y-52660000D03*
X209500000Y-50120000D03*
X209500000Y-47580000D03*
X209500000Y-45040000D03*
X209500000Y-42500000D03*
X216710000Y-42490000D03*
X216710000Y-45030000D03*
X216710000Y-47570000D03*
X216710000Y-50110000D03*
X216710000Y-52650000D03*
X216710000Y-55190000D03*
X216710000Y-57730000D03*
D11*
X216710000Y-60270000D03*
%TD*%
D10*
%TO.C,J7*%
X241040000Y-34500000D03*
X238500000Y-34500000D03*
D11*
X235960000Y-34500000D03*
%TD*%
D16*
%TO.C,R2*%
X226820000Y-120500000D03*
X224280000Y-120500000D03*
%TD*%
D10*
%TO.C,RE5*%
X187500000Y-95190000D03*
X187500000Y-97730000D03*
X187500000Y-100270000D03*
D11*
X187500000Y-102810000D03*
%TD*%
D10*
%TO.C,MC5*%
X176920000Y-118500000D03*
X179460000Y-118500000D03*
X182000000Y-118500000D03*
X184540000Y-118500000D03*
X184540000Y-121040000D03*
X182000000Y-121040000D03*
X179460000Y-121040000D03*
D12*
X176920000Y-121040000D03*
%TD*%
D10*
%TO.C,J6*%
X220000000Y-92735000D03*
D11*
X220000000Y-95275000D03*
%TD*%
D10*
%TO.C,RE4*%
X205500000Y-68380000D03*
X205500000Y-70920000D03*
X205500000Y-73460000D03*
D11*
X205500000Y-76000000D03*
%TD*%
D10*
%TO.C,OLED1*%
X249000000Y-118500000D03*
X249000000Y-115960000D03*
X249000000Y-113420000D03*
D11*
X249000000Y-110880000D03*
%TD*%
%TO.C,SW3*%
X202000000Y-92300000D03*
D10*
X202000000Y-94840000D03*
X202000000Y-97380000D03*
X202000000Y-99920000D03*
X202000000Y-102460000D03*
X202000000Y-105000000D03*
X202000000Y-107540000D03*
X202000000Y-110080000D03*
X194790000Y-110090000D03*
X194790000Y-107550000D03*
X194790000Y-105010000D03*
X194790000Y-102470000D03*
X194790000Y-99930000D03*
X194790000Y-97390000D03*
X194790000Y-94850000D03*
D11*
X194790000Y-92310000D03*
%TD*%
D10*
%TO.C,R4*%
X237040000Y-47000000D03*
D11*
X234500000Y-47000000D03*
%TD*%
D17*
%TO.C,U1*%
X223800000Y-92715000D03*
X223800000Y-90175000D03*
X223800000Y-87635000D03*
X223800000Y-85095000D03*
X223800000Y-82555000D03*
X223800000Y-80015000D03*
X223800000Y-77475000D03*
X223800000Y-74935000D03*
X223800000Y-72395000D03*
X223800000Y-69855000D03*
X223800000Y-67315000D03*
X223800000Y-64775000D03*
X223800000Y-62235000D03*
X223800000Y-59695000D03*
X223800000Y-57155000D03*
X249200000Y-57155000D03*
X249200000Y-59695000D03*
X249200000Y-62235000D03*
X249200000Y-64775000D03*
X249200000Y-67315000D03*
X249200000Y-69855000D03*
X249200000Y-72395000D03*
X249200000Y-74935000D03*
X249200000Y-77475000D03*
X249200000Y-80015000D03*
X249200000Y-82555000D03*
X249200000Y-85095000D03*
X249200000Y-87635000D03*
X249200000Y-90175000D03*
D18*
X249200000Y-92715000D03*
D19*
X224270000Y-53725000D03*
X224270000Y-100675000D03*
X248780000Y-53725000D03*
X248780000Y-100675000D03*
%TD*%
D10*
%TO.C,RE3*%
X211500000Y-94460000D03*
X211500000Y-97000000D03*
X211500000Y-99540000D03*
D11*
X211500000Y-102080000D03*
%TD*%
D10*
%TO.C,J4*%
X216500000Y-64920000D03*
X216500000Y-67460000D03*
X216500000Y-70000000D03*
X216500000Y-72540000D03*
X216500000Y-75080000D03*
X216500000Y-77620000D03*
X216500000Y-80160000D03*
X216500000Y-82700000D03*
X216500000Y-85240000D03*
D11*
X216500000Y-87780000D03*
%TD*%
%TO.C,SW1*%
X182790000Y-60710000D03*
D10*
X182790000Y-58170000D03*
X182790000Y-55630000D03*
X182790000Y-53090000D03*
X182790000Y-50550000D03*
X182790000Y-48010000D03*
X182790000Y-45470000D03*
X182790000Y-42930000D03*
X190000000Y-42920000D03*
X190000000Y-45460000D03*
X190000000Y-48000000D03*
X190000000Y-50540000D03*
X190000000Y-53080000D03*
X190000000Y-55620000D03*
X190000000Y-58160000D03*
D11*
X190000000Y-60700000D03*
%TD*%
D10*
%TO.C,MC3*%
X202420000Y-118500000D03*
X204960000Y-118500000D03*
X207500000Y-118500000D03*
X210040000Y-118500000D03*
X210040000Y-121040000D03*
X207500000Y-121040000D03*
X204960000Y-121040000D03*
D12*
X202420000Y-121040000D03*
%TD*%
D10*
%TO.C,J5*%
X254000000Y-75040000D03*
X254000000Y-72500000D03*
D11*
X254000000Y-69960000D03*
%TD*%
D20*
%TO.C,J1*%
X222300000Y-38000000D03*
D21*
X227000000Y-35000000D03*
D22*
X227000000Y-41000000D03*
%TD*%
D10*
%TO.C,U3*%
X241040000Y-29500000D03*
X238500000Y-29500000D03*
D11*
X235960000Y-29500000D03*
%TD*%
D16*
%TO.C,1k*%
X138150253Y-97849747D03*
X138150253Y-100389747D03*
%TD*%
D11*
%TO.C,J14*%
X92450253Y-81174747D03*
D10*
X92450253Y-78634747D03*
%TD*%
D23*
%TO.C,10uF2*%
X92350253Y-58049747D03*
D24*
X92350253Y-60049747D03*
%TD*%
D11*
%TO.C,J10*%
X40030253Y-41449747D03*
D10*
X37490253Y-41449747D03*
%TD*%
D23*
%TO.C,1000uf1*%
X35550253Y-94549747D03*
D24*
X35550253Y-96549747D03*
%TD*%
D11*
%TO.C,J3*%
X51050253Y-81749747D03*
D10*
X51050253Y-79209747D03*
%TD*%
D11*
%TO.C,J4*%
X55750253Y-81749747D03*
D10*
X55750253Y-79209747D03*
%TD*%
D11*
%TO.C,J9*%
X39990253Y-46649747D03*
D10*
X37450253Y-46649747D03*
%TD*%
D25*
%TO.C,10uF1*%
X127800253Y-47049747D03*
D24*
X125800253Y-47049747D03*
%TD*%
D19*
%TO.C,U1*%
X61970253Y-49849747D03*
X61970253Y-96799747D03*
X86480253Y-49849747D03*
X86480253Y-96799747D03*
D26*
X61550253Y-57809747D03*
D17*
X61550253Y-60349747D03*
X61550253Y-62889747D03*
X61550253Y-65429747D03*
X61550253Y-67969747D03*
X61550253Y-70509747D03*
X61550253Y-73049747D03*
X61550253Y-75589747D03*
X61550253Y-78129747D03*
X61550253Y-80669747D03*
X61550253Y-83209747D03*
X61550253Y-85749747D03*
X61550253Y-88289747D03*
X61550253Y-90829747D03*
X61550253Y-93369747D03*
X86950253Y-93369747D03*
X86950253Y-90829747D03*
X86950253Y-88289747D03*
X86950253Y-85749747D03*
X86950253Y-83209747D03*
X86950253Y-80669747D03*
X86950253Y-78129747D03*
X86950253Y-75589747D03*
X86950253Y-73049747D03*
X86950253Y-70509747D03*
X86950253Y-67969747D03*
X86950253Y-65429747D03*
X86950253Y-62889747D03*
X86950253Y-60349747D03*
X86950253Y-57809747D03*
%TD*%
D27*
%TO.C,U2*%
X114000253Y-54819747D03*
X114000253Y-92919747D03*
X152100253Y-54819747D03*
X152100253Y-92919747D03*
D28*
X112730253Y-61169747D03*
D29*
X112730253Y-63709747D03*
X112730253Y-66249747D03*
X112730253Y-68789747D03*
X112730253Y-71329747D03*
X112730253Y-73869747D03*
D28*
X125430253Y-94189747D03*
D29*
X127970253Y-94189747D03*
X130510253Y-94189747D03*
X133050253Y-94189747D03*
D28*
X135590253Y-94189747D03*
D29*
X138130253Y-94189747D03*
X140670253Y-94189747D03*
X143210253Y-94189747D03*
X145750253Y-94189747D03*
X148290253Y-94189747D03*
D28*
X145750253Y-53549747D03*
D29*
X143210253Y-53549747D03*
X140670253Y-53549747D03*
X138130253Y-53549747D03*
X135590253Y-53549747D03*
X133050253Y-53549747D03*
X130510253Y-53549747D03*
X127970253Y-53549747D03*
X125430253Y-53549747D03*
%TD*%
D11*
%TO.C,J16*%
X92450253Y-88589747D03*
D10*
X92450253Y-86049747D03*
%TD*%
D11*
%TO.C,J13*%
X97550253Y-81149747D03*
D10*
X97550253Y-78609747D03*
%TD*%
D14*
%TO.C,D1*%
X145850253Y-99149747D03*
D13*
X143310253Y-99149747D03*
%TD*%
D25*
%TO.C,0.1uF3*%
X127800253Y-39299747D03*
D24*
X125800253Y-39299747D03*
%TD*%
D11*
%TO.C,J17*%
X97550253Y-88549747D03*
D10*
X97550253Y-86009747D03*
%TD*%
D11*
%TO.C,J5*%
X55750253Y-89089747D03*
D10*
X55750253Y-86549747D03*
%TD*%
D11*
%TO.C,J12*%
X116150253Y-39949747D03*
D10*
X113610253Y-39949747D03*
%TD*%
D11*
%TO.C,J18*%
X27050253Y-40689747D03*
D10*
X27050253Y-43229747D03*
X27050253Y-45769747D03*
X27050253Y-48309747D03*
X27050253Y-50849747D03*
X27050253Y-53389747D03*
X27050253Y-55929747D03*
X27050253Y-58469747D03*
X27050253Y-61009747D03*
X27050253Y-63549747D03*
X27050253Y-66089747D03*
%TD*%
D23*
%TO.C,0.1uF1*%
X43305365Y-94544635D03*
D24*
X43305365Y-96544635D03*
%TD*%
D23*
%TO.C,0.1uf2*%
X100550253Y-58049747D03*
D24*
X100550253Y-60049747D03*
%TD*%
D11*
%TO.C,J6*%
X51050253Y-89049747D03*
D10*
X51050253Y-86509747D03*
%TD*%
D11*
%TO.C,J8*%
X39990253Y-51549747D03*
D10*
X37450253Y-51549747D03*
%TD*%
D11*
%TO.C,J7*%
X39990253Y-56449747D03*
D10*
X37450253Y-56449747D03*
%TD*%
D11*
%TO.C,J11*%
X116050253Y-45249747D03*
D10*
X113510253Y-45249747D03*
%TD*%
D30*
%TO.C,J1*%
X154050253Y-44649747D03*
D31*
X148050253Y-44649747D03*
D32*
X151050253Y-49349747D03*
%TD*%
D11*
%TO.C,J2*%
X29550253Y-96589747D03*
D10*
X27010253Y-96589747D03*
X29550253Y-94049747D03*
X27010253Y-94049747D03*
X29550253Y-91509747D03*
X27010253Y-91509747D03*
X29550253Y-88969747D03*
X27010253Y-88969747D03*
X29550253Y-86429747D03*
X27010253Y-86429747D03*
X29550253Y-83889747D03*
X27010253Y-83889747D03*
X29550253Y-81349747D03*
X27010253Y-81349747D03*
X29550253Y-78809747D03*
X27010253Y-78809747D03*
%TD*%
M02*
