M48
; DRILL file {KiCad 9.0.6} date 2026-02-04T00:25:27-0600
; FORMAT={-:-/ absolute / metric / decimal}
; #@! TF.CreationDate,2026-02-04T00:25:27-06:00
; #@! TF.GenerationSoftware,Kicad,Pcbnew,9.0.6
; #@! TF.FileFunction,Plated,1,4,PTH
FMAT,2
METRIC
; #@! TA.AperFunction,Plated,PTH,ViaDrill
T1C0.300
; #@! TA.AperFunction,Plated,PTH,ComponentDrill
T2C0.700
; #@! TA.AperFunction,Plated,PTH,ComponentDrill
T3C0.800
; #@! TA.AperFunction,Plated,PTH,ComponentDrill
T4C0.900
; #@! TA.AperFunction,Plated,PTH,ComponentDrill
T5C1.000
; #@! TA.AperFunction,Plated,PTH,ComponentDrill
T6C1.016
; #@! TA.AperFunction,Plated,PTH,ComponentDrill
T7C1.020
%
G90
G05
T1
X72.25Y-75.35
X82.7Y-49.4
X83.1Y-55.4
X88.4Y-56.0
T2
X186.1Y-99.8
X186.1Y-102.34
T3
X83.5Y-96.5
X83.5Y-98.5
X91.255Y-96.495
X91.255Y-98.495
X140.3Y-60.0
X140.3Y-62.0
X148.5Y-60.0
X148.5Y-62.0
X173.75Y-41.25
X173.75Y-49.0
X175.75Y-41.25
X175.75Y-49.0
T4
X191.26Y-101.1
X193.8Y-101.1
T5
X74.96Y-80.76
X74.96Y-83.3
X74.96Y-85.84
X74.96Y-88.38
X74.96Y-90.92
X74.96Y-93.46
X74.96Y-96.0
X74.96Y-98.54
X75.0Y-42.64
X75.0Y-45.18
X75.0Y-47.72
X75.0Y-50.26
X75.0Y-52.8
X75.0Y-55.34
X75.0Y-57.88
X75.0Y-60.42
X75.0Y-62.96
X75.0Y-65.5
X75.0Y-68.04
X77.5Y-80.76
X77.5Y-83.3
X77.5Y-85.84
X77.5Y-88.38
X77.5Y-90.92
X77.5Y-93.46
X77.5Y-96.0
X77.5Y-98.54
X85.4Y-48.6
X85.4Y-53.5
X85.4Y-58.4
X85.44Y-43.4
X87.94Y-48.6
X87.94Y-53.5
X87.94Y-58.4
X87.98Y-43.4
X99.0Y-81.16
X99.0Y-83.7
X99.0Y-88.46
X99.0Y-91.0
X103.7Y-81.16
X103.7Y-83.7
X103.7Y-88.5
X103.7Y-91.04
X140.4Y-80.585
X140.4Y-83.125
X140.4Y-88.0
X140.4Y-90.54
X145.5Y-80.56
X145.5Y-83.1
X145.5Y-87.96
X145.5Y-90.5
X161.46Y-47.2
X161.56Y-41.9
X164.0Y-47.2
X164.1Y-41.9
T6
X160.68Y-63.12
X160.68Y-65.66
X160.68Y-68.2
X160.68Y-70.74
X160.68Y-73.28
X160.68Y-75.82
X173.38Y-55.5
X173.38Y-96.14
X175.92Y-55.5
X175.92Y-96.14
X178.46Y-55.5
X178.46Y-96.14
X181.0Y-55.5
X181.0Y-96.14
X183.54Y-55.5
X183.54Y-96.14
X186.08Y-55.5
X186.08Y-96.14
X188.62Y-55.5
X188.62Y-96.14
X191.16Y-55.5
X191.16Y-96.14
X193.7Y-55.5
X193.7Y-96.14
X196.24Y-96.14
T7
X109.5Y-59.76
X109.5Y-62.3
X109.5Y-64.84
X109.5Y-67.38
X109.5Y-69.92
X109.5Y-72.46
X109.5Y-75.0
X109.5Y-77.54
X109.5Y-80.08
X109.5Y-82.62
X109.5Y-85.16
X109.5Y-87.7
X109.5Y-90.24
X109.5Y-92.78
X109.5Y-95.32
X134.9Y-59.76
X134.9Y-62.3
X134.9Y-64.84
X134.9Y-67.38
X134.9Y-69.92
X134.9Y-72.46
X134.9Y-75.0
X134.9Y-77.54
X134.9Y-80.08
X134.9Y-82.62
X134.9Y-85.16
X134.9Y-87.7
X134.9Y-90.24
X134.9Y-92.78
X134.9Y-95.32
T5
G00X196.0Y-45.6
M15
G01X196.0Y-47.6
M16
G05
G00X198.0Y-51.3
M15
G01X200.0Y-51.3
M16
G05
G00X202.0Y-45.6
M15
G01X202.0Y-47.6
M16
G05
M30
