<?xml version="1.0" standalone="no"?>
 <!DOCTYPE svg PUBLIC "-//W3C//DTD SVG 1.1//EN" 
 "http://www.w3.org/Graphics/SVG/1.1/DTD/svg11.dtd"> 
<svg
  xmlns:svg="http://www.w3.org/2000/svg"
  xmlns="http://www.w3.org/2000/svg"
  xmlns:xlink="http://www.w3.org/1999/xlink"
  version="1.1"
  width="297.0022mm" height="210.0072mm" viewBox="0.0000 0.0000 297.0022 210.0072">
<title>SVG Image created as GlassFuseBus-F_Silkscreen.svg date 2026/02/22 16:07:47 </title>
  <desc>Image generated by PCBNEW </desc>
<g style="fill:#000000; fill-opacity:1.0000;stroke:#000000; stroke-opacity:1.0000;
stroke-linecap:round; stroke-linejoin:round;"
 transform="translate(0 0) scale(1 1)">
</g>
<g style="fill:none; 
stroke:#000000; stroke-width:0.1500; stroke-opacity:1; 
stroke-linecap:round; stroke-linejoin:round;">
<text x="75.8120" y="56.0840"
textLength="1.9643" font-size="1.3333" lengthAdjust="spacingAndGlyphs"
text-anchor="middle" opacity="0" stroke-opacity="0">J7</text>
<g class="stroked-text"><desc>J7</desc>
<path d="M75.4787 55.0388
L75.4787 55.7531
" />
<path d="M75.4787 55.7531
L75.4310 55.8960
" />
<path d="M75.4310 55.8960
L75.3358 55.9912
" />
<path d="M75.3358 55.9912
L75.1930 56.0388
" />
<path d="M75.1930 56.0388
L75.0977 56.0388
" />
<path d="M75.8596 55.0388
L76.5263 55.0388
" />
<path d="M76.5263 55.0388
L76.0977 56.0388
" />
</g></g>
<g style="fill:none; 
stroke:#000000; stroke-width:0.1000; stroke-opacity:1; 
stroke-linecap:round; stroke-linejoin:round;">
<g transform="rotate(-90.000000 70.1120 29.4640)">
<text x="70.1120" y="29.9640"
textLength="1.9095" font-size="1.3333" lengthAdjust="spacingAndGlyphs"
text-anchor="middle" opacity="0" stroke-opacity="0">F7</text>
</g>
<g class="stroked-text"><desc>F7</desc>
<path d="M70.0456 29.7973
L70.0456 30.1307
" />
<path d="M70.5694 30.1307
L69.5694 30.1307
" />
<path d="M69.5694 30.1307
L69.5694 29.6545
" />
<path d="M69.5694 29.3688
L69.5694 28.7021
" />
<path d="M69.5694 28.7021
L70.5694 29.1307
" />
</g></g>
<g style="fill:none; 
stroke:#000000; stroke-width:0.1500; stroke-opacity:1; 
stroke-linecap:round; stroke-linejoin:round;">
<text x="75.8120" y="3.8440"
textLength="1.9643" font-size="1.3333" lengthAdjust="spacingAndGlyphs"
text-anchor="middle" opacity="0" stroke-opacity="0">J8</text>
<g class="stroked-text"><desc>J8</desc>
<path d="M75.4787 2.7988
L75.4787 3.5131
" />
<path d="M75.4787 3.5131
L75.4310 3.6560
" />
<path d="M75.4310 3.6560
L75.3358 3.7512
" />
<path d="M75.3358 3.7512
L75.1930 3.7988
" />
<path d="M75.1930 3.7988
L75.0977 3.7988
" />
<path d="M76.0977 3.2274
L76.0025 3.1798
" />
<path d="M76.0025 3.1798
L75.9549 3.1322
" />
<path d="M75.9549 3.1322
L75.9072 3.0369
" />
<path d="M75.9072 3.0369
L75.9072 2.9893
" />
<path d="M75.9072 2.9893
L75.9549 2.8941
" />
<path d="M75.9549 2.8941
L76.0025 2.8464
" />
<path d="M76.0025 2.8464
L76.0977 2.7988
" />
<path d="M76.0977 2.7988
L76.2882 2.7988
" />
<path d="M76.2882 2.7988
L76.3834 2.8464
" />
<path d="M76.3834 2.8464
L76.4310 2.8941
" />
<path d="M76.4310 2.8941
L76.4787 2.9893
" />
<path d="M76.4787 2.9893
L76.4787 3.0369
" />
<path d="M76.4787 3.0369
L76.4310 3.1322
" />
<path d="M76.4310 3.1322
L76.3834 3.1798
" />
<path d="M76.3834 3.1798
L76.2882 3.2274
" />
<path d="M76.2882 3.2274
L76.0977 3.2274
" />
<path d="M76.0977 3.2274
L76.0025 3.2750
" />
<path d="M76.0025 3.2750
L75.9549 3.3226
" />
<path d="M75.9549 3.3226
L75.9072 3.4179
" />
<path d="M75.9072 3.4179
L75.9072 3.6083
" />
<path d="M75.9072 3.6083
L75.9549 3.7036
" />
<path d="M75.9549 3.7036
L76.0025 3.7512
" />
<path d="M76.0025 3.7512
L76.0977 3.7988
" />
<path d="M76.0977 3.7988
L76.2882 3.7988
" />
<path d="M76.2882 3.7988
L76.3834 3.7512
" />
<path d="M76.3834 3.7512
L76.4310 3.7036
" />
<path d="M76.4310 3.7036
L76.4787 3.6083
" />
<path d="M76.4787 3.6083
L76.4787 3.4179
" />
<path d="M76.4787 3.4179
L76.4310 3.3226
" />
<path d="M76.4310 3.3226
L76.3834 3.2750
" />
<path d="M76.3834 3.2750
L76.2882 3.2274
" />
</g><text x="54.8120" y="3.8440"
textLength="1.9643" font-size="1.3333" lengthAdjust="spacingAndGlyphs"
text-anchor="middle" opacity="0" stroke-opacity="0">J6</text>
<g class="stroked-text"><desc>J6</desc>
<path d="M54.4787 2.7988
L54.4787 3.5131
" />
<path d="M54.4787 3.5131
L54.4310 3.6560
" />
<path d="M54.4310 3.6560
L54.3358 3.7512
" />
<path d="M54.3358 3.7512
L54.1930 3.7988
" />
<path d="M54.1930 3.7988
L54.0977 3.7988
" />
<path d="M55.3834 2.7988
L55.1930 2.7988
" />
<path d="M55.1930 2.7988
L55.0977 2.8464
" />
<path d="M55.0977 2.8464
L55.0501 2.8941
" />
<path d="M55.0501 2.8941
L54.9549 3.0369
" />
<path d="M54.9549 3.0369
L54.9072 3.2274
" />
<path d="M54.9072 3.2274
L54.9072 3.6083
" />
<path d="M54.9072 3.6083
L54.9549 3.7036
" />
<path d="M54.9549 3.7036
L55.0025 3.7512
" />
<path d="M55.0025 3.7512
L55.0977 3.7988
" />
<path d="M55.0977 3.7988
L55.2882 3.7988
" />
<path d="M55.2882 3.7988
L55.3834 3.7512
" />
<path d="M55.3834 3.7512
L55.4310 3.7036
" />
<path d="M55.4310 3.7036
L55.4787 3.6083
" />
<path d="M55.4787 3.6083
L55.4787 3.3702
" />
<path d="M55.4787 3.3702
L55.4310 3.2750
" />
<path d="M55.4310 3.2750
L55.3834 3.2274
" />
<path d="M55.3834 3.2274
L55.2882 3.1798
" />
<path d="M55.2882 3.1798
L55.0977 3.1798
" />
<path d="M55.0977 3.1798
L55.0025 3.2274
" />
<path d="M55.0025 3.2274
L54.9549 3.2750
" />
<path d="M54.9549 3.2750
L54.9072 3.3702
" />
</g><text x="54.8120" y="56.0840"
textLength="1.9643" font-size="1.3333" lengthAdjust="spacingAndGlyphs"
text-anchor="middle" opacity="0" stroke-opacity="0">J5</text>
<g class="stroked-text"><desc>J5</desc>
<path d="M54.4787 55.0388
L54.4787 55.7531
" />
<path d="M54.4787 55.7531
L54.4310 55.8960
" />
<path d="M54.4310 55.8960
L54.3358 55.9912
" />
<path d="M54.3358 55.9912
L54.1930 56.0388
" />
<path d="M54.1930 56.0388
L54.0977 56.0388
" />
<path d="M55.4310 55.0388
L54.9549 55.0388
" />
<path d="M54.9549 55.0388
L54.9072 55.5150
" />
<path d="M54.9072 55.5150
L54.9549 55.4674
" />
<path d="M54.9549 55.4674
L55.0501 55.4198
" />
<path d="M55.0501 55.4198
L55.2882 55.4198
" />
<path d="M55.2882 55.4198
L55.3834 55.4674
" />
<path d="M55.3834 55.4674
L55.4310 55.5150
" />
<path d="M55.4310 55.5150
L55.4787 55.6102
" />
<path d="M55.4787 55.6102
L55.4787 55.8483
" />
<path d="M55.4787 55.8483
L55.4310 55.9436
" />
<path d="M55.4310 55.9436
L55.3834 55.9912
" />
<path d="M55.3834 55.9912
L55.2882 56.0388
" />
<path d="M55.2882 56.0388
L55.0501 56.0388
" />
<path d="M55.0501 56.0388
L54.9549 55.9912
" />
<path d="M54.9549 55.9912
L54.9072 55.9436
" />
</g><text x="33.8120" y="3.8440"
textLength="1.9643" font-size="1.3333" lengthAdjust="spacingAndGlyphs"
text-anchor="middle" opacity="0" stroke-opacity="0">J4</text>
<g class="stroked-text"><desc>J4</desc>
<path d="M33.4787 2.7988
L33.4787 3.5131
" />
<path d="M33.4787 3.5131
L33.4310 3.6560
" />
<path d="M33.4310 3.6560
L33.3358 3.7512
" />
<path d="M33.3358 3.7512
L33.1930 3.7988
" />
<path d="M33.1930 3.7988
L33.0977 3.7988
" />
<path d="M34.3834 3.1322
L34.3834 3.7988
" />
<path d="M34.1453 2.7512
L33.9072 3.4655
" />
<path d="M33.9072 3.4655
L34.5263 3.4655
" />
</g><text x="33.8120" y="56.0840"
textLength="1.9643" font-size="1.3333" lengthAdjust="spacingAndGlyphs"
text-anchor="middle" opacity="0" stroke-opacity="0">J3</text>
<g class="stroked-text"><desc>J3</desc>
<path d="M33.4787 55.0388
L33.4787 55.7531
" />
<path d="M33.4787 55.7531
L33.4310 55.8960
" />
<path d="M33.4310 55.8960
L33.3358 55.9912
" />
<path d="M33.3358 55.9912
L33.1930 56.0388
" />
<path d="M33.1930 56.0388
L33.0977 56.0388
" />
<path d="M33.8596 55.0388
L34.4787 55.0388
" />
<path d="M34.4787 55.0388
L34.1453 55.4198
" />
<path d="M34.1453 55.4198
L34.2882 55.4198
" />
<path d="M34.2882 55.4198
L34.3834 55.4674
" />
<path d="M34.3834 55.4674
L34.4310 55.5150
" />
<path d="M34.4310 55.5150
L34.4787 55.6102
" />
<path d="M34.4787 55.6102
L34.4787 55.8483
" />
<path d="M34.4787 55.8483
L34.4310 55.9436
" />
<path d="M34.4310 55.9436
L34.3834 55.9912
" />
<path d="M34.3834 55.9912
L34.2882 56.0388
" />
<path d="M34.2882 56.0388
L34.0025 56.0388
" />
<path d="M34.0025 56.0388
L33.9072 55.9912
" />
<path d="M33.9072 55.9912
L33.8596 55.9436
" />
</g><text x="12.8120" y="56.0840"
textLength="1.9643" font-size="1.3333" lengthAdjust="spacingAndGlyphs"
text-anchor="middle" opacity="0" stroke-opacity="0">J2</text>
<g class="stroked-text"><desc>J2</desc>
<path d="M12.4787 55.0388
L12.4787 55.7531
" />
<path d="M12.4787 55.7531
L12.4310 55.8960
" />
<path d="M12.4310 55.8960
L12.3358 55.9912
" />
<path d="M12.3358 55.9912
L12.1930 56.0388
" />
<path d="M12.1930 56.0388
L12.0977 56.0388
" />
<path d="M12.9072 55.1341
L12.9549 55.0864
" />
<path d="M12.9549 55.0864
L13.0501 55.0388
" />
<path d="M13.0501 55.0388
L13.2882 55.0388
" />
<path d="M13.2882 55.0388
L13.3834 55.0864
" />
<path d="M13.3834 55.0864
L13.4310 55.1341
" />
<path d="M13.4310 55.1341
L13.4787 55.2293
" />
<path d="M13.4787 55.2293
L13.4787 55.3245
" />
<path d="M13.4787 55.3245
L13.4310 55.4674
" />
<path d="M13.4310 55.4674
L12.8596 56.0388
" />
<path d="M12.8596 56.0388
L13.4787 56.0388
" />
</g><text x="12.8120" y="3.8440"
textLength="1.9643" font-size="1.3333" lengthAdjust="spacingAndGlyphs"
text-anchor="middle" opacity="0" stroke-opacity="0">J1</text>
<g class="stroked-text"><desc>J1</desc>
<path d="M12.4787 2.7988
L12.4787 3.5131
" />
<path d="M12.4787 3.5131
L12.4310 3.6560
" />
<path d="M12.4310 3.6560
L12.3358 3.7512
" />
<path d="M12.3358 3.7512
L12.1930 3.7988
" />
<path d="M12.1930 3.7988
L12.0977 3.7988
" />
<path d="M13.4787 3.7988
L12.9072 3.7988
" />
<path d="M13.1930 3.7988
L13.1930 2.7988
" />
<path d="M13.1930 2.7988
L13.0977 2.9417
" />
<path d="M13.0977 2.9417
L13.0025 3.0369
" />
<path d="M13.0025 3.0369
L12.9072 3.0845
" />
</g></g>
<g style="fill:none; 
stroke:#000000; stroke-width:0.1000; stroke-opacity:1; 
stroke-linecap:round; stroke-linejoin:round;">
<g transform="rotate(-90.000000 80.6120 29.4640)">
<text x="80.6120" y="29.9640"
textLength="1.9095" font-size="1.3333" lengthAdjust="spacingAndGlyphs"
text-anchor="middle" opacity="0" stroke-opacity="0">F8</text>
</g>
<g class="stroked-text"><desc>F8</desc>
<path d="M80.5456 29.7973
L80.5456 30.1307
" />
<path d="M81.0694 30.1307
L80.0694 30.1307
" />
<path d="M80.0694 30.1307
L80.0694 29.6545
" />
<path d="M80.4980 29.1307
L80.4504 29.2259
" />
<path d="M80.4504 29.2259
L80.4028 29.2735
" />
<path d="M80.4028 29.2735
L80.3075 29.3211
" />
<path d="M80.3075 29.3211
L80.2599 29.3211
" />
<path d="M80.2599 29.3211
L80.1647 29.2735
" />
<path d="M80.1647 29.2735
L80.1170 29.2259
" />
<path d="M80.1170 29.2259
L80.0694 29.1307
" />
<path d="M80.0694 29.1307
L80.0694 28.9402
" />
<path d="M80.0694 28.9402
L80.1170 28.8450
" />
<path d="M80.1170 28.8450
L80.1647 28.7973
" />
<path d="M80.1647 28.7973
L80.2599 28.7497
" />
<path d="M80.2599 28.7497
L80.3075 28.7497
" />
<path d="M80.3075 28.7497
L80.4028 28.7973
" />
<path d="M80.4028 28.7973
L80.4504 28.8450
" />
<path d="M80.4504 28.8450
L80.4980 28.9402
" />
<path d="M80.4980 28.9402
L80.4980 29.1307
" />
<path d="M80.4980 29.1307
L80.5456 29.2259
" />
<path d="M80.5456 29.2259
L80.5932 29.2735
" />
<path d="M80.5932 29.2735
L80.6885 29.3211
" />
<path d="M80.6885 29.3211
L80.8789 29.3211
" />
<path d="M80.8789 29.3211
L80.9742 29.2735
" />
<path d="M80.9742 29.2735
L81.0218 29.2259
" />
<path d="M81.0218 29.2259
L81.0694 29.1307
" />
<path d="M81.0694 29.1307
L81.0694 28.9402
" />
<path d="M81.0694 28.9402
L81.0218 28.8450
" />
<path d="M81.0218 28.8450
L80.9742 28.7973
" />
<path d="M80.9742 28.7973
L80.8789 28.7497
" />
<path d="M80.8789 28.7497
L80.6885 28.7497
" />
<path d="M80.6885 28.7497
L80.5932 28.7973
" />
<path d="M80.5932 28.7973
L80.5456 28.8450
" />
<path d="M80.5456 28.8450
L80.4980 28.9402
" />
</g><g transform="rotate(-90.000000 59.6120 29.4640)">
<text x="59.6120" y="29.9640"
textLength="1.9095" font-size="1.3333" lengthAdjust="spacingAndGlyphs"
text-anchor="middle" opacity="0" stroke-opacity="0">F6</text>
</g>
<g class="stroked-text"><desc>F6</desc>
<path d="M59.5456 29.7973
L59.5456 30.1307
" />
<path d="M60.0694 30.1307
L59.0694 30.1307
" />
<path d="M59.0694 30.1307
L59.0694 29.6545
" />
<path d="M59.0694 28.8450
L59.0694 29.0354
" />
<path d="M59.0694 29.0354
L59.1170 29.1307
" />
<path d="M59.1170 29.1307
L59.1647 29.1783
" />
<path d="M59.1647 29.1783
L59.3075 29.2735
" />
<path d="M59.3075 29.2735
L59.4980 29.3211
" />
<path d="M59.4980 29.3211
L59.8789 29.3211
" />
<path d="M59.8789 29.3211
L59.9742 29.2735
" />
<path d="M59.9742 29.2735
L60.0218 29.2259
" />
<path d="M60.0218 29.2259
L60.0694 29.1307
" />
<path d="M60.0694 29.1307
L60.0694 28.9402
" />
<path d="M60.0694 28.9402
L60.0218 28.8450
" />
<path d="M60.0218 28.8450
L59.9742 28.7973
" />
<path d="M59.9742 28.7973
L59.8789 28.7497
" />
<path d="M59.8789 28.7497
L59.6408 28.7497
" />
<path d="M59.6408 28.7497
L59.5456 28.7973
" />
<path d="M59.5456 28.7973
L59.4980 28.8450
" />
<path d="M59.4980 28.8450
L59.4504 28.9402
" />
<path d="M59.4504 28.9402
L59.4504 29.1307
" />
<path d="M59.4504 29.1307
L59.4980 29.2259
" />
<path d="M59.4980 29.2259
L59.5456 29.2735
" />
<path d="M59.5456 29.2735
L59.6408 29.3211
" />
</g><g transform="rotate(-90.000000 49.1120 29.4640)">
<text x="49.1120" y="29.9640"
textLength="1.9095" font-size="1.3333" lengthAdjust="spacingAndGlyphs"
text-anchor="middle" opacity="0" stroke-opacity="0">F5</text>
</g>
<g class="stroked-text"><desc>F5</desc>
<path d="M49.0456 29.7973
L49.0456 30.1307
" />
<path d="M49.5694 30.1307
L48.5694 30.1307
" />
<path d="M48.5694 30.1307
L48.5694 29.6545
" />
<path d="M48.5694 28.7973
L48.5694 29.2735
" />
<path d="M48.5694 29.2735
L49.0456 29.3211
" />
<path d="M49.0456 29.3211
L48.9980 29.2735
" />
<path d="M48.9980 29.2735
L48.9504 29.1783
" />
<path d="M48.9504 29.1783
L48.9504 28.9402
" />
<path d="M48.9504 28.9402
L48.9980 28.8450
" />
<path d="M48.9980 28.8450
L49.0456 28.7973
" />
<path d="M49.0456 28.7973
L49.1408 28.7497
" />
<path d="M49.1408 28.7497
L49.3789 28.7497
" />
<path d="M49.3789 28.7497
L49.4742 28.7973
" />
<path d="M49.4742 28.7973
L49.5218 28.8450
" />
<path d="M49.5218 28.8450
L49.5694 28.9402
" />
<path d="M49.5694 28.9402
L49.5694 29.1783
" />
<path d="M49.5694 29.1783
L49.5218 29.2735
" />
<path d="M49.5218 29.2735
L49.4742 29.3211
" />
</g><g transform="rotate(-90.000000 38.6120 29.4640)">
<text x="38.6120" y="29.9640"
textLength="1.9095" font-size="1.3333" lengthAdjust="spacingAndGlyphs"
text-anchor="middle" opacity="0" stroke-opacity="0">F4</text>
</g>
<g class="stroked-text"><desc>F4</desc>
<path d="M38.5456 29.7973
L38.5456 30.1307
" />
<path d="M39.0694 30.1307
L38.0694 30.1307
" />
<path d="M38.0694 30.1307
L38.0694 29.6545
" />
<path d="M38.4028 28.8450
L39.0694 28.8450
" />
<path d="M38.0218 29.0830
L38.7361 29.3211
" />
<path d="M38.7361 29.3211
L38.7361 28.7021
" />
</g><g transform="rotate(-90.000000 28.1120 29.4640)">
<text x="28.1120" y="29.9640"
textLength="1.9095" font-size="1.3333" lengthAdjust="spacingAndGlyphs"
text-anchor="middle" opacity="0" stroke-opacity="0">F3</text>
</g>
<g class="stroked-text"><desc>F3</desc>
<path d="M28.0456 29.7973
L28.0456 30.1307
" />
<path d="M28.5694 30.1307
L27.5694 30.1307
" />
<path d="M27.5694 30.1307
L27.5694 29.6545
" />
<path d="M27.5694 29.3688
L27.5694 28.7497
" />
<path d="M27.5694 28.7497
L27.9504 29.0830
" />
<path d="M27.9504 29.0830
L27.9504 28.9402
" />
<path d="M27.9504 28.9402
L27.9980 28.8450
" />
<path d="M27.9980 28.8450
L28.0456 28.7973
" />
<path d="M28.0456 28.7973
L28.1408 28.7497
" />
<path d="M28.1408 28.7497
L28.3789 28.7497
" />
<path d="M28.3789 28.7497
L28.4742 28.7973
" />
<path d="M28.4742 28.7973
L28.5218 28.8450
" />
<path d="M28.5218 28.8450
L28.5694 28.9402
" />
<path d="M28.5694 28.9402
L28.5694 29.2259
" />
<path d="M28.5694 29.2259
L28.5218 29.3211
" />
<path d="M28.5218 29.3211
L28.4742 29.3688
" />
</g><g transform="rotate(-90.000000 17.6120 29.4640)">
<text x="17.6120" y="29.9640"
textLength="1.9095" font-size="1.3333" lengthAdjust="spacingAndGlyphs"
text-anchor="middle" opacity="0" stroke-opacity="0">F2</text>
</g>
<g class="stroked-text"><desc>F2</desc>
<path d="M17.5456 29.7973
L17.5456 30.1307
" />
<path d="M18.0694 30.1307
L17.0694 30.1307
" />
<path d="M17.0694 30.1307
L17.0694 29.6545
" />
<path d="M17.1647 29.3211
L17.1170 29.2735
" />
<path d="M17.1170 29.2735
L17.0694 29.1783
" />
<path d="M17.0694 29.1783
L17.0694 28.9402
" />
<path d="M17.0694 28.9402
L17.1170 28.8450
" />
<path d="M17.1170 28.8450
L17.1647 28.7973
" />
<path d="M17.1647 28.7973
L17.2599 28.7497
" />
<path d="M17.2599 28.7497
L17.3551 28.7497
" />
<path d="M17.3551 28.7497
L17.4980 28.7973
" />
<path d="M17.4980 28.7973
L18.0694 29.3688
" />
<path d="M18.0694 29.3688
L18.0694 28.7497
" />
</g><g transform="rotate(-90.000000 7.1120 29.4640)">
<text x="7.1120" y="29.9640"
textLength="1.9095" font-size="1.3333" lengthAdjust="spacingAndGlyphs"
text-anchor="middle" opacity="0" stroke-opacity="0">F1</text>
</g>
<g class="stroked-text"><desc>F1</desc>
<path d="M7.0456 29.7973
L7.0456 30.1307
" />
<path d="M7.5694 30.1307
L6.5694 30.1307
" />
<path d="M6.5694 30.1307
L6.5694 29.6545
" />
<path d="M7.5694 28.7497
L7.5694 29.3211
" />
<path d="M7.5694 29.0354
L6.5694 29.0354
" />
<path d="M6.5694 29.0354
L6.7123 29.1307
" />
<path d="M6.7123 29.1307
L6.8075 29.2259
" />
<path d="M6.8075 29.2259
L6.8551 29.3211
" />
</g></g>
<g style="fill:none; 
stroke:#000000; stroke-width:0.1200; stroke-opacity:1; 
stroke-linecap:round; stroke-linejoin:round;">
<path d="M80.9320 54.5840
L70.6920 54.5840
" />
<path d="M80.9320 47.4640
L70.6920 47.4640
" />
<path d="M80.9320 45.3440
L80.9320 54.5840
" />
<path d="M78.6120 45.3440
L80.9320 45.3440
" />
<path d="M70.6920 54.5840
L70.6920 45.3440
" />
<path d="M70.6920 45.3440
L78.0120 45.3440
" />
<circle cx="78.3120" cy="52.6640" r="1.0000" /> 
<circle cx="73.3120" cy="52.6640" r="1.0000" /> 
<path style="fill:#000000; fill-opacity:1.0000; 
stroke:#000000; stroke-width:0.1200; stroke-opacity:1; 
stroke-linecap:round; stroke-linejoin:round;fill-rule:evenodd;"
d="M 78.3120,45.3440
77.8720,44.7340
78.7520,44.7340
Z" /> 
<path style="fill:none; 
stroke:#000000; stroke-width:0.1000; stroke-opacity:1; 
stroke-linecap:round; stroke-linejoin:round;fill:none"
d="M 65.9120,42.6640
75.3120,42.6640
75.3120,16.2640
65.9120,16.2640
Z" /> 
</g>
<g style="fill:none; 
stroke:#000000; stroke-width:0.1200; stroke-opacity:1; 
stroke-linecap:round; stroke-linejoin:round;">
<path d="M70.6920 4.3440
L80.9320 4.3440
" />
<path d="M70.6920 11.4640
L80.9320 11.4640
" />
<path d="M70.6920 13.5840
L70.6920 4.3440
" />
<path d="M73.0120 13.5840
L70.6920 13.5840
" />
<path d="M80.9320 4.3440
L80.9320 13.5840
" />
<path d="M80.9320 13.5840
L73.6120 13.5840
" />
<circle cx="73.3120" cy="6.2640" r="1.0000" /> 
<circle cx="78.3120" cy="6.2640" r="1.0000" /> 
<path style="fill:#000000; fill-opacity:1.0000; 
stroke:#000000; stroke-width:0.1200; stroke-opacity:1; 
stroke-linecap:round; stroke-linejoin:round;fill-rule:evenodd;"
d="M 73.7520,14.1940
72.8720,14.1940
73.3120,13.5840
Z" /> 
</g>
<g style="fill:none; 
stroke:#000000; stroke-width:0.1200; stroke-opacity:1; 
stroke-linecap:round; stroke-linejoin:round;">
<path d="M49.6920 4.3440
L59.9320 4.3440
" />
<path d="M49.6920 11.4640
L59.9320 11.4640
" />
<path d="M49.6920 13.5840
L49.6920 4.3440
" />
<path d="M52.0120 13.5840
L49.6920 13.5840
" />
<path d="M59.9320 4.3440
L59.9320 13.5840
" />
<path d="M59.9320 13.5840
L52.6120 13.5840
" />
<circle cx="52.3120" cy="6.2640" r="1.0000" /> 
<circle cx="57.3120" cy="6.2640" r="1.0000" /> 
<path style="fill:#000000; fill-opacity:1.0000; 
stroke:#000000; stroke-width:0.1200; stroke-opacity:1; 
stroke-linecap:round; stroke-linejoin:round;fill-rule:evenodd;"
d="M 52.7520,14.1940
51.8720,14.1940
52.3120,13.5840
Z" /> 
</g>
<g style="fill:none; 
stroke:#000000; stroke-width:0.1200; stroke-opacity:1; 
stroke-linecap:round; stroke-linejoin:round;">
<path d="M59.9320 54.5840
L49.6920 54.5840
" />
<path d="M59.9320 47.4640
L49.6920 47.4640
" />
<path d="M59.9320 45.3440
L59.9320 54.5840
" />
<path d="M57.6120 45.3440
L59.9320 45.3440
" />
<path d="M49.6920 54.5840
L49.6920 45.3440
" />
<path d="M49.6920 45.3440
L57.0120 45.3440
" />
<circle cx="57.3120" cy="52.6640" r="1.0000" /> 
<circle cx="52.3120" cy="52.6640" r="1.0000" /> 
<path style="fill:#000000; fill-opacity:1.0000; 
stroke:#000000; stroke-width:0.1200; stroke-opacity:1; 
stroke-linecap:round; stroke-linejoin:round;fill-rule:evenodd;"
d="M 57.3120,45.3440
56.8720,44.7340
57.7520,44.7340
Z" /> 
</g>
<g style="fill:none; 
stroke:#000000; stroke-width:0.1200; stroke-opacity:1; 
stroke-linecap:round; stroke-linejoin:round;">
<path d="M28.6920 4.3440
L38.9320 4.3440
" />
<path d="M28.6920 11.4640
L38.9320 11.4640
" />
<path d="M28.6920 13.5840
L28.6920 4.3440
" />
<path d="M31.0120 13.5840
L28.6920 13.5840
" />
<path d="M38.9320 4.3440
L38.9320 13.5840
" />
<path d="M38.9320 13.5840
L31.6120 13.5840
" />
<circle cx="31.3120" cy="6.2640" r="1.0000" /> 
<circle cx="36.3120" cy="6.2640" r="1.0000" /> 
<path style="fill:#000000; fill-opacity:1.0000; 
stroke:#000000; stroke-width:0.1200; stroke-opacity:1; 
stroke-linecap:round; stroke-linejoin:round;fill-rule:evenodd;"
d="M 31.7520,14.1940
30.8720,14.1940
31.3120,13.5840
Z" /> 
</g>
<g style="fill:none; 
stroke:#000000; stroke-width:0.1200; stroke-opacity:1; 
stroke-linecap:round; stroke-linejoin:round;">
<path d="M38.9320 54.5840
L28.6920 54.5840
" />
<path d="M38.9320 47.4640
L28.6920 47.4640
" />
<path d="M38.9320 45.3440
L38.9320 54.5840
" />
<path d="M36.6120 45.3440
L38.9320 45.3440
" />
<path d="M28.6920 54.5840
L28.6920 45.3440
" />
<path d="M28.6920 45.3440
L36.0120 45.3440
" />
<circle cx="36.3120" cy="52.6640" r="1.0000" /> 
<circle cx="31.3120" cy="52.6640" r="1.0000" /> 
<path style="fill:#000000; fill-opacity:1.0000; 
stroke:#000000; stroke-width:0.1200; stroke-opacity:1; 
stroke-linecap:round; stroke-linejoin:round;fill-rule:evenodd;"
d="M 36.3120,45.3440
35.8720,44.7340
36.7520,44.7340
Z" /> 
</g>
<g style="fill:none; 
stroke:#000000; stroke-width:0.1200; stroke-opacity:1; 
stroke-linecap:round; stroke-linejoin:round;">
<path d="M17.9320 54.5840
L7.6920 54.5840
" />
<path d="M17.9320 47.4640
L7.6920 47.4640
" />
<path d="M17.9320 45.3440
L17.9320 54.5840
" />
<path d="M15.6120 45.3440
L17.9320 45.3440
" />
<path d="M7.6920 54.5840
L7.6920 45.3440
" />
<path d="M7.6920 45.3440
L15.0120 45.3440
" />
<circle cx="15.3120" cy="52.6640" r="1.0000" /> 
<circle cx="10.3120" cy="52.6640" r="1.0000" /> 
<path style="fill:#000000; fill-opacity:1.0000; 
stroke:#000000; stroke-width:0.1200; stroke-opacity:1; 
stroke-linecap:round; stroke-linejoin:round;fill-rule:evenodd;"
d="M 15.3120,45.3440
14.8720,44.7340
15.7520,44.7340
Z" /> 
</g>
<g style="fill:none; 
stroke:#000000; stroke-width:0.1200; stroke-opacity:1; 
stroke-linecap:round; stroke-linejoin:round;">
<path d="M7.6920 4.3440
L17.9320 4.3440
" />
<path d="M7.6920 11.4640
L17.9320 11.4640
" />
<path d="M7.6920 13.5840
L7.6920 4.3440
" />
<path d="M10.0120 13.5840
L7.6920 13.5840
" />
<path d="M17.9320 4.3440
L17.9320 13.5840
" />
<path d="M17.9320 13.5840
L10.6120 13.5840
" />
<circle cx="10.3120" cy="6.2640" r="1.0000" /> 
<circle cx="15.3120" cy="6.2640" r="1.0000" /> 
<path style="fill:#000000; fill-opacity:1.0000; 
stroke:#000000; stroke-width:0.1200; stroke-opacity:1; 
stroke-linecap:round; stroke-linejoin:round;fill-rule:evenodd;"
d="M 10.7520,14.1940
9.8720,14.1940
10.3120,13.5840
Z" /> 
<path style="fill:none; 
stroke:#000000; stroke-width:0.1000; stroke-opacity:1; 
stroke-linecap:round; stroke-linejoin:round;fill:none"
d="M 76.4120,42.6640
85.8120,42.6640
85.8120,16.2640
76.4120,16.2640
Z" /> 
<path style="fill:none; 
stroke:#000000; stroke-width:0.1000; stroke-opacity:1; 
stroke-linecap:round; stroke-linejoin:round;fill:none"
d="M 55.4120,42.6640
64.8120,42.6640
64.8120,16.2640
55.4120,16.2640
Z" /> 
<path style="fill:none; 
stroke:#000000; stroke-width:0.1000; stroke-opacity:1; 
stroke-linecap:round; stroke-linejoin:round;fill:none"
d="M 44.9120,42.6640
54.3120,42.6640
54.3120,16.2640
44.9120,16.2640
Z" /> 
<path style="fill:none; 
stroke:#000000; stroke-width:0.1000; stroke-opacity:1; 
stroke-linecap:round; stroke-linejoin:round;fill:none"
d="M 34.4120,42.6640
43.8120,42.6640
43.8120,16.2640
34.4120,16.2640
Z" /> 
<path style="fill:none; 
stroke:#000000; stroke-width:0.1000; stroke-opacity:1; 
stroke-linecap:round; stroke-linejoin:round;fill:none"
d="M 23.9120,42.6640
33.3120,42.6640
33.3120,16.2640
23.9120,16.2640
Z" /> 
<path style="fill:none; 
stroke:#000000; stroke-width:0.1000; stroke-opacity:1; 
stroke-linecap:round; stroke-linejoin:round;fill:none"
d="M 13.4120,42.6640
22.8120,42.6640
22.8120,16.2640
13.4120,16.2640
Z" /> 
<path style="fill:none; 
stroke:#000000; stroke-width:0.1000; stroke-opacity:1; 
stroke-linecap:round; stroke-linejoin:round;fill:none"
d="M 2.9120,42.6640
12.3120,42.6640
12.3120,16.2640
2.9120,16.2640
Z" /> 
</g> 
</svg>
