<?xml version="1.0" standalone="no"?>
 <!DOCTYPE svg PUBLIC "-//W3C//DTD SVG 1.1//EN" 
 "http://www.w3.org/Graphics/SVG/1.1/DTD/svg11.dtd"> 
<svg
  xmlns:svg="http://www.w3.org/2000/svg"
  xmlns="http://www.w3.org/2000/svg"
  xmlns:xlink="http://www.w3.org/1999/xlink"
  version="1.1"
  width="297.0022mm" height="210.0072mm" viewBox="0.0000 0.0000 297.0022 210.0072">
<title>SVG Image created as GlassFuseBus-B_Mask.svg date 2026/02/22 16:07:48 </title>
  <desc>Image generated by PCBNEW </desc>
<g style="fill:#000000; fill-opacity:1.0000;stroke:#000000; stroke-opacity:1.0000;
stroke-linecap:round; stroke-linejoin:round;"
 transform="translate(0 0) scale(1 1)">
<path style="fill:#000000; fill-opacity:1.0000; stroke:none;fill-rule:evenodd;"
d="M 79.8120,50.7140
79.7930,50.8097
79.7388,50.8908
79.6577,50.9450
79.5620,50.9640
77.0620,50.9640
76.9663,50.9450
76.8852,50.8908
76.8310,50.8097
76.8120,50.7140
76.8120,48.2140
76.8310,48.1183
76.8852,48.0372
76.9663,47.9830
77.0620,47.9640
79.5620,47.9640
79.6577,47.9830
79.7388,48.0372
79.7930,48.1183
79.8120,48.2140
Z" /> 
</g>
<g style="fill:#000000; fill-opacity:1.0000; stroke:none;">
<circle cx="73.3120" cy="49.4640" r="1.5000" /> 
</g>
<g style="fill:#000000; fill-opacity:1.0000; stroke:none;">
<circle cx="70.6120" cy="18.7140" r="2.0000" /> 
</g>
<g style="fill:#000000; fill-opacity:1.0000; stroke:none;">
<circle cx="70.6120" cy="40.2140" r="2.0000" /> 
<path style="fill:#000000; fill-opacity:1.0000; stroke:none;fill-rule:evenodd;"
d="M 71.8120,8.2140
71.8310,8.1183
71.8852,8.0372
71.9663,7.9830
72.0620,7.9640
74.5620,7.9640
74.6577,7.9830
74.7388,8.0372
74.7930,8.1183
74.8120,8.2140
74.8120,10.7140
74.7930,10.8097
74.7388,10.8908
74.6577,10.9450
74.5620,10.9640
72.0620,10.9640
71.9663,10.9450
71.8852,10.8908
71.8310,10.8097
71.8120,10.7140
Z" /> 
</g>
<g style="fill:#000000; fill-opacity:1.0000; stroke:none;">
<circle cx="78.3120" cy="9.4640" r="1.5000" /> 
<path style="fill:#000000; fill-opacity:1.0000; stroke:none;fill-rule:evenodd;"
d="M 50.8120,8.2140
50.8310,8.1183
50.8852,8.0372
50.9663,7.9830
51.0620,7.9640
53.5620,7.9640
53.6577,7.9830
53.7388,8.0372
53.7930,8.1183
53.8120,8.2140
53.8120,10.7140
53.7930,10.8097
53.7388,10.8908
53.6577,10.9450
53.5620,10.9640
51.0620,10.9640
50.9663,10.9450
50.8852,10.8908
50.8310,10.8097
50.8120,10.7140
Z" /> 
</g>
<g style="fill:#000000; fill-opacity:1.0000; stroke:none;">
<circle cx="57.3120" cy="9.4640" r="1.5000" /> 
<path style="fill:#000000; fill-opacity:1.0000; stroke:none;fill-rule:evenodd;"
d="M 58.8120,50.7140
58.7930,50.8097
58.7388,50.8908
58.6577,50.9450
58.5620,50.9640
56.0620,50.9640
55.9663,50.9450
55.8852,50.8908
55.8310,50.8097
55.8120,50.7140
55.8120,48.2140
55.8310,48.1183
55.8852,48.0372
55.9663,47.9830
56.0620,47.9640
58.5620,47.9640
58.6577,47.9830
58.7388,48.0372
58.7930,48.1183
58.8120,48.2140
Z" /> 
</g>
<g style="fill:#000000; fill-opacity:1.0000; stroke:none;">
<circle cx="52.3120" cy="49.4640" r="1.5000" /> 
<path style="fill:#000000; fill-opacity:1.0000; stroke:none;fill-rule:evenodd;"
d="M 29.8120,8.2140
29.8310,8.1183
29.8852,8.0372
29.9663,7.9830
30.0620,7.9640
32.5620,7.9640
32.6577,7.9830
32.7388,8.0372
32.7930,8.1183
32.8120,8.2140
32.8120,10.7140
32.7930,10.8097
32.7388,10.8908
32.6577,10.9450
32.5620,10.9640
30.0620,10.9640
29.9663,10.9450
29.8852,10.8908
29.8310,10.8097
29.8120,10.7140
Z" /> 
</g>
<g style="fill:#000000; fill-opacity:1.0000; stroke:none;">
<circle cx="36.3120" cy="9.4640" r="1.5000" /> 
<path style="fill:#000000; fill-opacity:1.0000; stroke:none;fill-rule:evenodd;"
d="M 37.8120,50.7140
37.7930,50.8097
37.7388,50.8908
37.6577,50.9450
37.5620,50.9640
35.0620,50.9640
34.9663,50.9450
34.8852,50.8908
34.8310,50.8097
34.8120,50.7140
34.8120,48.2140
34.8310,48.1183
34.8852,48.0372
34.9663,47.9830
35.0620,47.9640
37.5620,47.9640
37.6577,47.9830
37.7388,48.0372
37.7930,48.1183
37.8120,48.2140
Z" /> 
</g>
<g style="fill:#000000; fill-opacity:1.0000; stroke:none;">
<circle cx="31.3120" cy="49.4640" r="1.5000" /> 
<path style="fill:#000000; fill-opacity:1.0000; stroke:none;fill-rule:evenodd;"
d="M 16.8120,50.7140
16.7930,50.8097
16.7388,50.8908
16.6577,50.9450
16.5620,50.9640
14.0620,50.9640
13.9663,50.9450
13.8852,50.8908
13.8310,50.8097
13.8120,50.7140
13.8120,48.2140
13.8310,48.1183
13.8852,48.0372
13.9663,47.9830
14.0620,47.9640
16.5620,47.9640
16.6577,47.9830
16.7388,48.0372
16.7930,48.1183
16.8120,48.2140
Z" /> 
</g>
<g style="fill:#000000; fill-opacity:1.0000; stroke:none;">
<circle cx="10.3120" cy="49.4640" r="1.5000" /> 
<path style="fill:#000000; fill-opacity:1.0000; stroke:none;fill-rule:evenodd;"
d="M 8.8120,8.2140
8.8310,8.1183
8.8852,8.0372
8.9663,7.9830
9.0620,7.9640
11.5620,7.9640
11.6577,7.9830
11.7388,8.0372
11.7930,8.1183
11.8120,8.2140
11.8120,10.7140
11.7930,10.8097
11.7388,10.8908
11.6577,10.9450
11.5620,10.9640
9.0620,10.9640
8.9663,10.9450
8.8852,10.8908
8.8310,10.8097
8.8120,10.7140
Z" /> 
</g>
<g style="fill:#000000; fill-opacity:1.0000; stroke:none;">
<circle cx="15.3120" cy="9.4640" r="1.5000" /> 
</g>
<g style="fill:#000000; fill-opacity:1.0000; stroke:none;">
<circle cx="81.1120" cy="40.2140" r="2.0000" /> 
</g>
<g style="fill:#000000; fill-opacity:1.0000; stroke:none;">
<circle cx="81.1120" cy="18.7140" r="2.0000" /> 
</g>
<g style="fill:#000000; fill-opacity:1.0000; stroke:none;">
<circle cx="60.1120" cy="40.2140" r="2.0000" /> 
</g>
<g style="fill:#000000; fill-opacity:1.0000; stroke:none;">
<circle cx="60.1120" cy="18.7140" r="2.0000" /> 
</g>
<g style="fill:#000000; fill-opacity:1.0000; stroke:none;">
<circle cx="49.6120" cy="40.2140" r="2.0000" /> 
</g>
<g style="fill:#000000; fill-opacity:1.0000; stroke:none;">
<circle cx="49.6120" cy="18.7140" r="2.0000" /> 
</g>
<g style="fill:#000000; fill-opacity:1.0000; stroke:none;">
<circle cx="39.1120" cy="40.2140" r="2.0000" /> 
</g>
<g style="fill:#000000; fill-opacity:1.0000; stroke:none;">
<circle cx="39.1120" cy="18.7140" r="2.0000" /> 
</g>
<g style="fill:#000000; fill-opacity:1.0000; stroke:none;">
<circle cx="28.6120" cy="40.2140" r="2.0000" /> 
</g>
<g style="fill:#000000; fill-opacity:1.0000; stroke:none;">
<circle cx="28.6120" cy="18.7140" r="2.0000" /> 
</g>
<g style="fill:#000000; fill-opacity:1.0000; stroke:none;">
<circle cx="18.1120" cy="40.2140" r="2.0000" /> 
</g>
<g style="fill:#000000; fill-opacity:1.0000; stroke:none;">
<circle cx="18.1120" cy="18.7140" r="2.0000" /> 
</g>
<g style="fill:#000000; fill-opacity:1.0000; stroke:none;">
<circle cx="7.6120" cy="40.2140" r="2.0000" /> 
</g>
<g style="fill:#000000; fill-opacity:1.0000; stroke:none;">
<circle cx="7.6120" cy="18.7140" r="2.0000" /> 
</g> 
</svg>
